<?xml version="1.0" encoding="UTF-8"?><svg id="b" xmlns="http://www.w3.org/2000/svg" xmlns:xlink="http://www.w3.org/1999/xlink" viewBox="0 0 534.102 92"><defs><linearGradient id="d" x1="-87.328" y1="-77.572" x2="480.334" y2="99.823" gradientUnits="userSpaceOnUse"><stop offset="0" stop-color="#e9331e"/><stop offset="1" stop-color="#ed6c00"/></linearGradient></defs><g id="c"><g><g><rect x="85.102" y="3" width="446" height="86" rx="13.951" ry="13.951" style="fill:url(#d);"/><path d="M517.151,6c6.048,0,10.951,4.903,10.951,10.951v58.098c0,6.048-4.903,10.951-10.951,10.951H99.053c-6.048,0-10.951-4.903-10.951-10.951V16.951c0-6.048,4.903-10.951,10.951-10.951h418.098m0-6H99.053c-9.347,0-16.951,7.604-16.951,16.951v58.098c0,9.347,7.604,16.951,16.951,16.951h418.098c9.347,0,16.951-7.604,16.951-16.951V16.951c0-9.347-7.604-16.951-16.951-16.951h0Z" style="fill:#fff;"/></g><path d="M494.102,52h34v23.405c0,5.848-4.748,10.595-10.595,10.595h-23.405V52h0Z" style="fill:#fff;"/><g><polyline points="507.746 65 514.946 71 507.746 77" style="fill:none; stroke:#ed6c00; stroke-linecap:round; stroke-miterlimit:10; stroke-width:2.4px;"/><polyline points="514.946 65 522.146 71 514.946 77" style="fill:none; stroke:#ed6c00; stroke-linecap:round; stroke-miterlimit:10; stroke-width:2.4px;"/></g><g><g><path d="M187.702,36.314c2.128,0,2.828-.057,2.968-.057,.28,0,.308,.027,.308,.309v1.987c0,.308-.027,.336-.308,.336-.14,0-.84-.056-2.968-.056h-2.576c-2.128,0-2.828,.056-2.968,.056-.28,0-.309-.028-.309-.336v-1.987c0-.281,.028-.309,.309-.309,.14,0,.84,.057,2.968,.057h2.576Zm2.548,15.903c0,3.248,.056,3.864,.056,4.032,0,.279-.028,.308-.308,.308h-1.904c-.28,0-.308-.028-.308-.308v-.784h-2.464v1.288c0,.279-.028,.309-.309,.309h-1.876c-.308,0-.336-.029-.336-.309,0-.168,.056-.812,.056-4.2v-1.792c0-1.764-.056-2.436-.056-2.632,0-.28,.028-.308,.336-.308,.168,0,.756,.056,2.548,.056h1.736c1.792,0,2.38-.056,2.576-.056,.279,0,.308,.027,.308,.308,0,.168-.056,.84-.056,2.155v1.933Zm-2.688-19.739c1.792,0,2.353-.057,2.521-.057,.308,0,.336,.027,.336,.309v1.848c0,.279-.028,.308-.336,.308-.168,0-.729-.056-2.521-.056h-1.876c-1.819,0-2.38,.056-2.548,.056-.28,0-.308-.028-.308-.308v-1.848c0-.281,.027-.309,.308-.309,.168,0,.729,.057,2.548,.057h1.876Zm-.252,7.812c1.681,0,2.185-.056,2.353-.056,.308,0,.336,.027,.336,.308v1.819c0,.28-.028,.309-.336,.309-.168,0-.672-.057-2.353-.057h-1.512c-1.708,0-2.212,.057-2.38,.057-.28,0-.309-.028-.309-.309v-1.819c0-.28,.028-.308,.309-.308,.168,0,.672,.056,2.38,.056h1.512Zm0,3.78c1.681,0,2.185-.057,2.353-.057,.308,0,.336,.028,.336,.309v1.791c0,.281-.028,.309-.336,.309-.168,0-.672-.057-2.353-.057h-1.512c-1.708,0-2.212,.057-2.38,.057-.28,0-.309-.027-.309-.309v-1.791c0-.28,.028-.309,.309-.309,.168,0,.672,.057,2.38,.057h1.512Zm-1.987,6.131v2.94h2.464v-2.94h-2.464Zm22.26,1.877c0,.308-.028,.336-.309,.336-.084,0-.56-.028-1.54-.028,.028,.616,.057,1.204,.057,1.681,0,1.176-.141,1.68-.645,2.155s-1.176,.56-3.304,.588q-.84,0-1.036-.868c-.14-.588-.392-1.231-.616-1.623,.784,.055,1.456,.084,2.128,.084,.757,0,.925-.197,.925-.756v-1.289h-8.316v1.26c0,1.988,.056,2.94,.056,3.108,0,.252-.027,.28-.308,.28h-1.96c-.28,0-.308-.028-.308-.28,0-.196,.056-1.036,.056-3.024v-1.315c-.812,0-1.176,.028-1.26,.028-.28,0-.309-.028-.309-.336v-1.541c0-.279,.028-.307,.309-.307,.084,0,.447,.027,1.26,.055v-3.248c0-1.959-.056-2.855-.056-3.051,0-.28,.027-.309,.308-.309,.168,0,1.008,.057,3.472,.057h1.484v-1.316h-2.576c-2.688,0-3.612,.056-3.78,.056-.279,0-.308-.028-.308-.336v-1.456c0-.279,.028-.308,.308-.308,.168,0,1.093,.056,3.78,.056v-1.4c-1.652,.028-2.268,.057-2.408,.057-.279,0-.308-.028-.308-.309v-1.315c0-.252,.028-.28,.308-.28,.141,0,.756,.057,2.408,.057v-1.373c-2.156,.029-2.968,.057-3.108,.057-.279,0-.308-.027-.308-.336v-1.344c0-.28,.028-.309,.308-.309,.141,0,.952,.057,3.108,.057v-.448c0-.979-.028-1.567-.168-2.101,.924,.057,1.792,.112,2.548,.196,.28,.028,.42,.14,.42,.224,0,.168-.056,.281-.14,.449-.14,.252-.168,.531-.168,1.315v.364h2.771v-.448c0-.979-.027-1.567-.168-2.101,.924,.057,1.792,.112,2.548,.196,.28,.028,.421,.14,.421,.224,0,.168-.084,.336-.169,.504-.14,.252-.14,.477-.14,1.261v.364c2.548,0,3.444-.057,3.64-.057,.28,0,.309,.028,.309,.309v1.344c0,.309-.028,.336-.309,.336-.195,0-1.092-.057-3.64-.057v1.373c1.988,0,2.772-.057,2.94-.057,.279,0,.308,.028,.308,.28v1.315c0,.28-.028,.309-.308,.309-.168,0-.952-.028-2.94-.057v1.4h.42c2.716,0,3.641-.056,3.809-.056,.252,0,.279,.028,.279,.308v1.456c0,.308-.027,.336-.279,.336-.168,0-1.093-.056-3.809-.056h-3.164v1.316h1.849c2.464,0,3.332-.057,3.5-.057,.279,0,.308,.028,.308,.309,0,.168-.056,1.26-.056,3.304v2.995c1.008-.027,1.483-.055,1.567-.055,.28,0,.309,.027,.309,.307v1.541Zm-9.884-4.957v-1.455h-2.772v1.455h2.772Zm0,3.164v-1.483h-2.772v1.483h2.772Zm2.659-13.047v-1.373h-2.771v1.373h2.771Zm0,3.191v-1.4h-2.771v1.4h2.771Zm-.279,5.236v1.455h3.164v-1.455h-3.164Zm3.164,4.619v-1.483h-3.164v1.483h3.164Z" style="fill:#fff;"/><path d="M220.826,40.458c0,2.044-.028,3.752-.112,5.235,1.567-1.68,2.38-3.416,3.052-5.571,.168-.532,.252-1.261,.308-1.876,.757,.168,1.708,.336,2.353,.531,.336,.112,.476,.225,.476,.393s-.084,.279-.168,.393c-.168,.195-.279,.42-.447,.951-.141,.448-.253,.868-.393,1.26,.729,1.148,1.624,2.24,2.884,3.248-.363,.364-.868,.812-1.176,1.316-.224,.393-.364,.588-.504,.588s-.308-.168-.56-.477c-.729-.783-1.261-1.455-1.681-2.155-.42,.84-.952,1.651-1.567,2.437-.309,.42-.448,.588-.588,.588-.112,0-.225-.113-.364-.252-.448-.449-1.232-.98-1.652-1.205-.084,1.4-.224,2.604-.392,3.78-.393,2.492-1.036,4.425-2.101,6.524-.195,.363-.308,.56-.447,.56-.141,0-.309-.168-.561-.448-.588-.672-1.315-1.344-1.819-1.651,1.092-1.82,1.819-3.668,2.184-6.188,.308-2.127,.448-4.592,.448-8.539,0-3.725-.057-5.404-.057-5.572,0-.252,.028-.28,.309-.28,.168,0,1.092,.056,3.752,.056h5.571v-.644c0-.841-.027-1.568-.168-2.269,1.093,.028,2.044,.084,2.969,.168,.279,.028,.447,.168,.447,.28,0,.196-.084,.337-.168,.532-.111,.225-.195,.615-.195,1.232v.699h6.355c2.66,0,3.556-.056,3.725-.056,.252,0,.279,.028,.279,.28v2.016c0,.28-.027,.309-.279,.309-.169,0-1.064-.057-3.725-.057h-15.987v3.864Zm3.556,15.624c-2.744,0-3.668,.056-3.836,.056-.28,0-.309-.028-.309-.336v-1.987c0-.281,.028-.309,.309-.309,.168,0,1.092,.057,3.836,.057h4.424v-2.828h-2.52c-2.688,0-3.641,.055-3.809,.055-.308,0-.336-.027-.336-.336v-1.903c0-.28,.028-.308,.336-.308,.168,0,1.12,.056,3.809,.056h2.52v-7.868c0-1.372-.028-2.156-.168-3.052,1.036,.028,1.848,.084,2.8,.196,.28,.027,.448,.168,.448,.336,0,.195-.056,.42-.168,.615-.168,.336-.168,.812-.168,1.961v5.151c1.624-1.735,2.464-3.472,3.164-5.601,.195-.643,.308-1.231,.336-1.791,.728,.14,1.68,.336,2.324,.56,.308,.084,.476,.224,.476,.364,0,.168-.084,.279-.196,.393-.168,.195-.279,.363-.447,.951l-.309,.952c.896,1.345,2.044,2.576,3.557,3.668-.421,.336-.952,.896-1.261,1.429-.224,.363-.363,.559-.504,.559-.14,0-.308-.139-.588-.42-.84-.84-1.624-1.791-2.24-2.771-.504,.98-1.092,1.904-1.792,2.771-.252,.336-.392,.504-.531,.504-.168,0-.337-.168-.645-.475-.392-.393-.952-.785-1.344-.953v2.521h3.388c2.688,0,3.612-.056,3.78-.056,.308,0,.336,.027,.336,.308v1.903c0,.309-.028,.336-.336,.336-.168,0-1.092-.055-3.78-.055h-3.388v2.828h5.235c2.717,0,3.669-.057,3.837-.057,.279,0,.308,.027,.308,.309v1.987c0,.308-.028,.336-.308,.336-.168,0-1.12-.056-3.837-.056h-12.403Z" style="fill:#fff;"/><path d="M263.021,37.658c-.645,4.76-1.82,9.127-3.5,12.067-1.204,2.101-2.66,3.22-4.76,3.22-2.464,0-4.956-2.631-4.956-7.195,0-2.688,1.147-5.264,3.164-7.28,2.352-2.353,5.319-3.584,9.1-3.584,6.72,0,10.668,4.144,10.668,9.716,0,5.208-2.939,8.484-8.624,10.192-.588,.168-.84,.056-1.204-.505-.308-.475-.896-1.119-1.96-1.764,4.732-1.119,8.456-3.08,8.456-8.371,0-3.332-2.52-6.496-6.271-6.496h-.112Zm-8.036,2.716c-1.344,1.512-2.184,3.388-2.184,5.18,0,2.576,1.036,4.004,1.903,4.004,.729,0,1.345-.364,2.101-1.708,1.231-2.268,2.492-6.3,2.968-10.023-1.96,.392-3.528,1.176-4.788,2.548Z" style="fill:#fff;"/><path d="M287.578,41.242c-1.4,.111-2.828,.224-4.704,.224-.477,0-.616-.168-.672-.588-.084-.532-.196-1.456-.309-2.437,.729,.112,1.456,.141,2.185,.141,1.176,0,2.38-.112,3.556-.225,0-.924,.028-1.988,.028-3.191,0-.729-.028-1.54-.196-2.268,1.4,.084,2.576,.279,3.332,.504,.336,.084,.56,.279,.56,.531,0,.112-.056,.252-.168,.448-.195,.364-.336,.728-.392,1.092-.084,.728-.112,1.429-.14,2.324,1.231-.252,2.38-.616,3.584-1.036,.252-.084,.447-.027,.476,.252,.112,.7,.168,1.456,.168,2.184,0,.281-.084,.365-.364,.449-1.848,.588-2.323,.728-4.004,1.063-.027,1.344-.027,2.716-.056,4.06,2.632-1.119,5.096-1.568,6.888-1.539,3.472,.027,5.964,2.239,5.964,5.6,0,3.584-2.296,5.684-6.076,5.684-.812,0-1.708-.111-2.296-.252-.447-.111-.615-.393-.615-.84-.057-.616-.252-1.568-.841-2.38,1.345,.448,2.465,.504,3.5,.504,1.568,0,3.024-.896,3.024-2.884,0-1.82-1.12-2.828-3.08-2.828-1.596,0-3.528,.42-6.412,1.904,.028,1.176,.057,2.127,.112,3.359,.084,1.232,.224,2.996,.224,3.641,0,.392,.057,.812-.42,.924-.616,.168-1.512,.308-2.072,.336-.308,.027-.42-.196-.672-.561-.756-1.035-2.212-2.38-3.976-3.584-.308,.168-.645,.393-.896,.616-.14,.14-.336,.196-.476,.196-.224,0-.448-.168-.616-.448-.308-.504-.868-1.681-1.288-2.604,.729-.168,1.652-.476,2.576-.979,1.204-.672,2.521-1.429,4.564-2.604v-4.787Zm-2.604,9.632c.784,.42,1.736,.896,2.632,1.26,.225,.056,.309,.028,.28-.224-.056-.729-.112-2.016-.168-2.94-.784,.532-1.736,1.177-2.744,1.904Zm13.384-14.7c.196-.309,.28-.393,.477-.336,2.576,.756,4.479,1.932,5.936,3.416,.112,.111,.168,.195,.168,.279s-.056,.168-.111,.281c-.364,.56-1.093,1.428-1.513,1.987-.084,.112-.476,.14-.56,0-1.484-1.651-3.444-2.688-5.685-3.444,.364-.756,.812-1.483,1.288-2.184Z" style="fill:#fff;"/><path d="M322.857,34.773c0-1.539-.056-2.408-.224-3.416,1.063,.028,2.128,.084,3.08,.196,.252,.028,.448,.14,.448,.28,0,.225-.057,.393-.141,.588-.14,.363-.195,.98-.195,2.296v.925h4.928c2.716,0,3.668-.057,3.836-.057,.28,0,.308,.027,.308,.309,0,.168-.056,1.203-.056,4.312v4.088c0,5.208,.056,6.188,.056,6.356,0,.279-.027,.308-.308,.308h-2.353c-.279,0-.308-.028-.308-.308v-.953h-6.104v1.82c0,3.332,.027,5.04,.027,5.18,0,.28-.027,.309-.28,.309h-2.491c-.252,0-.28-.028-.28-.309,0-.168,.056-1.848,.056-5.151v-1.849h-5.907v1.064c0,.28-.028,.309-.309,.309h-2.352c-.28,0-.309-.028-.309-.309,0-.168,.057-1.148,.057-6.384v-3.64c0-3.641-.057-4.648-.057-4.844,0-.281,.028-.309,.309-.309,.195,0,1.147,.057,3.836,.057h4.731v-.869Zm-5.907,6.553h5.907v-3.137h-5.907v3.137Zm5.907,5.824v-3.332h-5.907v3.332h5.907Zm2.969-8.961v3.137h6.104v-3.137h-6.104Zm6.104,8.961v-3.332h-6.104v3.332h6.104Z" style="fill:#fff;"/><path d="M351.445,33.234c.477,.111,.673,.252,.673,.531,0,.309-.169,.645-.28,.924-.141,.393-.252,1.26-.393,3.416-.279,4.312-.42,7.168-.42,10.836,0,2.828,.336,3.473,2.576,3.473,2.492,0,6.384-1.512,9.8-5.152,.112,1.064,.364,1.988,.645,2.66,.14,.309,.224,.504,.224,.672,0,.252-.112,.477-.56,.868-3.024,2.772-6.973,4.2-10.612,4.2-3.584,0-5.264-1.428-5.264-5.713,0-4.703,.252-8.735,.392-12.096,.056-1.652,.14-3.443-.28-5.123,1.288,.139,2.633,.279,3.5,.504Z" style="fill:#fff;"/><path d="M381.377,50.789c.588,1.148,1.147,1.849,2.296,2.324,.979,.393,2.744,.561,5.18,.561,3.612,0,7.868-.195,12.04-.616-.392,.589-.644,1.345-.756,2.185q-.14,.896-1.036,.951c-3.556,.196-6.888,.28-9.8,.28-2.884,0-5.208-.252-6.552-.812-1.288-.532-2.044-1.316-2.744-2.492-.868,.84-1.848,1.68-2.884,2.464-.28,.224-.448,.392-.561,.56-.14,.196-.252,.28-.42,.28-.112,0-.28-.14-.392-.364-.393-.728-.756-1.623-1.148-2.631,.729-.337,1.12-.533,1.652-.869,.812-.504,1.624-1.147,2.352-1.791v-6.188h-1.372c-1.512,0-1.903,.056-2.044,.056-.308,0-.336-.027-.336-.336v-2.156c0-.279,.028-.308,.336-.308,.141,0,.532,.056,2.044,.056h1.792c1.484,0,1.933-.056,2.101-.056,.279,0,.308,.028,.308,.308,0,.168-.056,.953-.056,2.66v5.936Zm-1.736-12.543c-.196,.14-.28,.195-.364,.195s-.14-.056-.224-.195c-1.036-1.68-2.184-3.192-3.444-4.368-.224-.196-.168-.28,.141-.476l1.567-1.037c.309-.195,.364-.223,.588-.027,1.288,1.204,2.492,2.576,3.5,4.172,.168,.252,.168,.309-.14,.532l-1.624,1.204Zm9.912-5.377c1.288,0,2.184-.055,2.548-.055,.196,0,.28,.14,.28,.308,0,.644-.028,2.212,.336,4.116,.812,4.647,3.556,9.072,7.868,11.815-.477,.532-1.093,1.372-1.484,2.185-.224,.42-.336,.615-.504,.615-.14,0-.336-.111-.616-.363-3.416-2.744-5.712-6.44-6.804-10.641-1.064,4.256-3.136,7.588-6.384,10.416-.309,.252-.477,.393-.616,.393s-.28-.168-.588-.532c-.588-.784-1.176-1.288-1.736-1.652,4.48-3.136,7-7.504,7.645-13.888h-2.437c-1.735,0-2.24,.057-2.408,.057-.308,0-.336-.029-.336-.337v-2.184c0-.28,.028-.308,.336-.308,.168,0,.673,.055,2.408,.055h2.492Z" style="fill:#fff;"/><path d="M425.981,40.766c.056-.615,.056-1.148-.028-1.904,1.456,.365,2.576,.785,3.248,1.205,.252,.14,.392,.504,.196,.756-.168,.363-.364,.672-.448,1.092-.225,1.176-.504,2.408-.784,3.611,1.596,.812,3.332,1.904,4.368,2.688,.28,.168,.252,.308,.168,.588-.28,.672-.868,1.849-1.204,2.408-.084,.14-.168,.196-.252,.196-.112,0-.224-.084-.336-.196-1.232-1.063-2.353-1.876-3.668-2.632-1.428,3.22-2.94,5.264-5.656,7.363-.252,.196-.392,.309-.56,.309-.112,0-.225-.057-.42-.196-.757-.616-1.456-.896-2.437-1.147,3.5-2.437,5.208-4.76,6.272-7.588-1.54-.785-3.528-1.4-5.544-1.709-1.484,3.08-2.296,4.48-3.416,5.601-1.036,1.092-2.156,1.54-3.584,1.54-1.624,0-3.332-1.12-3.332-3.836,0-3.473,3.584-6.188,8.26-6.188,.924-2.324,1.624-4.285,2.324-6.637-1.54,.168-2.94,.336-3.864,.448-.392,.056-.812,.14-1.26,.308-.141,.057-.336,.112-.504,.112-.225,0-.364-.112-.448-.308-.252-.561-.532-1.652-.812-3.053,.841,.168,1.624,.196,2.465,.168,1.344,0,2.743-.14,4.34-.363,.699-.112,1.008-.252,1.372-.477,.111-.084,.252-.111,.363-.111,.141,0,.28,.027,.393,.111,.7,.42,1.372,.98,1.903,1.54,.168,.168,.252,.308,.252,.476s-.111,.309-.279,.477c-.42,.393-.532,.924-.756,1.456-.729,1.903-1.513,4.088-2.353,6.104,1.765,.223,3.416,.643,5.433,1.399,.279-1.288,.476-2.353,.588-3.612Zm-14.784,7.812c0,.896,.308,1.287,.979,1.287,.532,0,1.064-.363,1.624-1.063,.645-.812,1.316-1.933,2.044-3.416-2.855,.112-4.647,1.597-4.647,3.192Z" style="fill:#fff;"/></g><g><path d="M187.702,36.314c2.128,0,2.828-.057,2.968-.057,.28,0,.308,.027,.308,.309v1.987c0,.308-.027,.336-.308,.336-.14,0-.84-.056-2.968-.056h-2.576c-2.128,0-2.828,.056-2.968,.056-.28,0-.309-.028-.309-.336v-1.987c0-.281,.028-.309,.309-.309,.14,0,.84,.057,2.968,.057h2.576Zm2.548,15.903c0,3.248,.056,3.864,.056,4.032,0,.279-.028,.308-.308,.308h-1.904c-.28,0-.308-.028-.308-.308v-.784h-2.464v1.288c0,.279-.028,.309-.309,.309h-1.876c-.308,0-.336-.029-.336-.309,0-.168,.056-.812,.056-4.2v-1.792c0-1.764-.056-2.436-.056-2.632,0-.28,.028-.308,.336-.308,.168,0,.756,.056,2.548,.056h1.736c1.792,0,2.38-.056,2.576-.056,.279,0,.308,.027,.308,.308,0,.168-.056,.84-.056,2.155v1.933Zm-2.688-19.739c1.792,0,2.353-.057,2.521-.057,.308,0,.336,.027,.336,.309v1.848c0,.279-.028,.308-.336,.308-.168,0-.729-.056-2.521-.056h-1.876c-1.819,0-2.38,.056-2.548,.056-.28,0-.308-.028-.308-.308v-1.848c0-.281,.027-.309,.308-.309,.168,0,.729,.057,2.548,.057h1.876Zm-.252,7.812c1.681,0,2.185-.056,2.353-.056,.308,0,.336,.027,.336,.308v1.819c0,.28-.028,.309-.336,.309-.168,0-.672-.057-2.353-.057h-1.512c-1.708,0-2.212,.057-2.38,.057-.28,0-.309-.028-.309-.309v-1.819c0-.28,.028-.308,.309-.308,.168,0,.672,.056,2.38,.056h1.512Zm0,3.78c1.681,0,2.185-.057,2.353-.057,.308,0,.336,.028,.336,.309v1.791c0,.281-.028,.309-.336,.309-.168,0-.672-.057-2.353-.057h-1.512c-1.708,0-2.212,.057-2.38,.057-.28,0-.309-.027-.309-.309v-1.791c0-.28,.028-.309,.309-.309,.168,0,.672,.057,2.38,.057h1.512Zm-1.987,6.131v2.94h2.464v-2.94h-2.464Zm22.26,1.877c0,.308-.028,.336-.309,.336-.084,0-.56-.028-1.54-.028,.028,.616,.057,1.204,.057,1.681,0,1.176-.141,1.68-.645,2.155s-1.176,.56-3.304,.588q-.84,0-1.036-.868c-.14-.588-.392-1.231-.616-1.623,.784,.055,1.456,.084,2.128,.084,.757,0,.925-.197,.925-.756v-1.289h-8.316v1.26c0,1.988,.056,2.94,.056,3.108,0,.252-.027,.28-.308,.28h-1.96c-.28,0-.308-.028-.308-.28,0-.196,.056-1.036,.056-3.024v-1.315c-.812,0-1.176,.028-1.26,.028-.28,0-.309-.028-.309-.336v-1.541c0-.279,.028-.307,.309-.307,.084,0,.447,.027,1.26,.055v-3.248c0-1.959-.056-2.855-.056-3.051,0-.28,.027-.309,.308-.309,.168,0,1.008,.057,3.472,.057h1.484v-1.316h-2.576c-2.688,0-3.612,.056-3.78,.056-.279,0-.308-.028-.308-.336v-1.456c0-.279,.028-.308,.308-.308,.168,0,1.093,.056,3.78,.056v-1.4c-1.652,.028-2.268,.057-2.408,.057-.279,0-.308-.028-.308-.309v-1.315c0-.252,.028-.28,.308-.28,.141,0,.756,.057,2.408,.057v-1.373c-2.156,.029-2.968,.057-3.108,.057-.279,0-.308-.027-.308-.336v-1.344c0-.28,.028-.309,.308-.309,.141,0,.952,.057,3.108,.057v-.448c0-.979-.028-1.567-.168-2.101,.924,.057,1.792,.112,2.548,.196,.28,.028,.42,.14,.42,.224,0,.168-.056,.281-.14,.449-.14,.252-.168,.531-.168,1.315v.364h2.771v-.448c0-.979-.027-1.567-.168-2.101,.924,.057,1.792,.112,2.548,.196,.28,.028,.421,.14,.421,.224,0,.168-.084,.336-.169,.504-.14,.252-.14,.477-.14,1.261v.364c2.548,0,3.444-.057,3.64-.057,.28,0,.309,.028,.309,.309v1.344c0,.309-.028,.336-.309,.336-.195,0-1.092-.057-3.64-.057v1.373c1.988,0,2.772-.057,2.94-.057,.279,0,.308,.028,.308,.28v1.315c0,.28-.028,.309-.308,.309-.168,0-.952-.028-2.94-.057v1.4h.42c2.716,0,3.641-.056,3.809-.056,.252,0,.279,.028,.279,.308v1.456c0,.308-.027,.336-.279,.336-.168,0-1.093-.056-3.809-.056h-3.164v1.316h1.849c2.464,0,3.332-.057,3.5-.057,.279,0,.308,.028,.308,.309,0,.168-.056,1.26-.056,3.304v2.995c1.008-.027,1.483-.055,1.567-.055,.28,0,.309,.027,.309,.307v1.541Zm-9.884-4.957v-1.455h-2.772v1.455h2.772Zm0,3.164v-1.483h-2.772v1.483h2.772Zm2.659-13.047v-1.373h-2.771v1.373h2.771Zm0,3.191v-1.4h-2.771v1.4h2.771Zm-.279,5.236v1.455h3.164v-1.455h-3.164Zm3.164,4.619v-1.483h-3.164v1.483h3.164Z" style="fill:none; stroke:#fff; stroke-miterlimit:10; stroke-width:.5px;"/><path d="M220.826,40.458c0,2.044-.028,3.752-.112,5.235,1.567-1.68,2.38-3.416,3.052-5.571,.168-.532,.252-1.261,.308-1.876,.757,.168,1.708,.336,2.353,.531,.336,.112,.476,.225,.476,.393s-.084,.279-.168,.393c-.168,.195-.279,.42-.447,.951-.141,.448-.253,.868-.393,1.26,.729,1.148,1.624,2.24,2.884,3.248-.363,.364-.868,.812-1.176,1.316-.224,.393-.364,.588-.504,.588s-.308-.168-.56-.477c-.729-.783-1.261-1.455-1.681-2.155-.42,.84-.952,1.651-1.567,2.437-.309,.42-.448,.588-.588,.588-.112,0-.225-.113-.364-.252-.448-.449-1.232-.98-1.652-1.205-.084,1.4-.224,2.604-.392,3.78-.393,2.492-1.036,4.425-2.101,6.524-.195,.363-.308,.56-.447,.56-.141,0-.309-.168-.561-.448-.588-.672-1.315-1.344-1.819-1.651,1.092-1.82,1.819-3.668,2.184-6.188,.308-2.127,.448-4.592,.448-8.539,0-3.725-.057-5.404-.057-5.572,0-.252,.028-.28,.309-.28,.168,0,1.092,.056,3.752,.056h5.571v-.644c0-.841-.027-1.568-.168-2.269,1.093,.028,2.044,.084,2.969,.168,.279,.028,.447,.168,.447,.28,0,.196-.084,.337-.168,.532-.111,.225-.195,.615-.195,1.232v.699h6.355c2.66,0,3.556-.056,3.725-.056,.252,0,.279,.028,.279,.28v2.016c0,.28-.027,.309-.279,.309-.169,0-1.064-.057-3.725-.057h-15.987v3.864Zm3.556,15.624c-2.744,0-3.668,.056-3.836,.056-.28,0-.309-.028-.309-.336v-1.987c0-.281,.028-.309,.309-.309,.168,0,1.092,.057,3.836,.057h4.424v-2.828h-2.52c-2.688,0-3.641,.055-3.809,.055-.308,0-.336-.027-.336-.336v-1.903c0-.28,.028-.308,.336-.308,.168,0,1.12,.056,3.809,.056h2.52v-7.868c0-1.372-.028-2.156-.168-3.052,1.036,.028,1.848,.084,2.8,.196,.28,.027,.448,.168,.448,.336,0,.195-.056,.42-.168,.615-.168,.336-.168,.812-.168,1.961v5.151c1.624-1.735,2.464-3.472,3.164-5.601,.195-.643,.308-1.231,.336-1.791,.728,.14,1.68,.336,2.324,.56,.308,.084,.476,.224,.476,.364,0,.168-.084,.279-.196,.393-.168,.195-.279,.363-.447,.951l-.309,.952c.896,1.345,2.044,2.576,3.557,3.668-.421,.336-.952,.896-1.261,1.429-.224,.363-.363,.559-.504,.559-.14,0-.308-.139-.588-.42-.84-.84-1.624-1.791-2.24-2.771-.504,.98-1.092,1.904-1.792,2.771-.252,.336-.392,.504-.531,.504-.168,0-.337-.168-.645-.475-.392-.393-.952-.785-1.344-.953v2.521h3.388c2.688,0,3.612-.056,3.78-.056,.308,0,.336,.027,.336,.308v1.903c0,.309-.028,.336-.336,.336-.168,0-1.092-.055-3.78-.055h-3.388v2.828h5.235c2.717,0,3.669-.057,3.837-.057,.279,0,.308,.027,.308,.309v1.987c0,.308-.028,.336-.308,.336-.168,0-1.12-.056-3.837-.056h-12.403Z" style="fill:none; stroke:#fff; stroke-miterlimit:10; stroke-width:.5px;"/><path d="M263.021,37.658c-.645,4.76-1.82,9.127-3.5,12.067-1.204,2.101-2.66,3.22-4.76,3.22-2.464,0-4.956-2.631-4.956-7.195,0-2.688,1.147-5.264,3.164-7.28,2.352-2.353,5.319-3.584,9.1-3.584,6.72,0,10.668,4.144,10.668,9.716,0,5.208-2.939,8.484-8.624,10.192-.588,.168-.84,.056-1.204-.505-.308-.475-.896-1.119-1.96-1.764,4.732-1.119,8.456-3.08,8.456-8.371,0-3.332-2.52-6.496-6.271-6.496h-.112Zm-8.036,2.716c-1.344,1.512-2.184,3.388-2.184,5.18,0,2.576,1.036,4.004,1.903,4.004,.729,0,1.345-.364,2.101-1.708,1.231-2.268,2.492-6.3,2.968-10.023-1.96,.392-3.528,1.176-4.788,2.548Z" style="fill:none; stroke:#fff; stroke-miterlimit:10; stroke-width:.5px;"/><path d="M287.578,41.242c-1.4,.111-2.828,.224-4.704,.224-.477,0-.616-.168-.672-.588-.084-.532-.196-1.456-.309-2.437,.729,.112,1.456,.141,2.185,.141,1.176,0,2.38-.112,3.556-.225,0-.924,.028-1.988,.028-3.191,0-.729-.028-1.54-.196-2.268,1.4,.084,2.576,.279,3.332,.504,.336,.084,.56,.279,.56,.531,0,.112-.056,.252-.168,.448-.195,.364-.336,.728-.392,1.092-.084,.728-.112,1.429-.14,2.324,1.231-.252,2.38-.616,3.584-1.036,.252-.084,.447-.027,.476,.252,.112,.7,.168,1.456,.168,2.184,0,.281-.084,.365-.364,.449-1.848,.588-2.323,.728-4.004,1.063-.027,1.344-.027,2.716-.056,4.06,2.632-1.119,5.096-1.568,6.888-1.539,3.472,.027,5.964,2.239,5.964,5.6,0,3.584-2.296,5.684-6.076,5.684-.812,0-1.708-.111-2.296-.252-.447-.111-.615-.393-.615-.84-.057-.616-.252-1.568-.841-2.38,1.345,.448,2.465,.504,3.5,.504,1.568,0,3.024-.896,3.024-2.884,0-1.82-1.12-2.828-3.08-2.828-1.596,0-3.528,.42-6.412,1.904,.028,1.176,.057,2.127,.112,3.359,.084,1.232,.224,2.996,.224,3.641,0,.392,.057,.812-.42,.924-.616,.168-1.512,.308-2.072,.336-.308,.027-.42-.196-.672-.561-.756-1.035-2.212-2.38-3.976-3.584-.308,.168-.645,.393-.896,.616-.14,.14-.336,.196-.476,.196-.224,0-.448-.168-.616-.448-.308-.504-.868-1.681-1.288-2.604,.729-.168,1.652-.476,2.576-.979,1.204-.672,2.521-1.429,4.564-2.604v-4.787Zm-2.604,9.632c.784,.42,1.736,.896,2.632,1.26,.225,.056,.309,.028,.28-.224-.056-.729-.112-2.016-.168-2.94-.784,.532-1.736,1.177-2.744,1.904Zm13.384-14.7c.196-.309,.28-.393,.477-.336,2.576,.756,4.479,1.932,5.936,3.416,.112,.111,.168,.195,.168,.279s-.056,.168-.111,.281c-.364,.56-1.093,1.428-1.513,1.987-.084,.112-.476,.14-.56,0-1.484-1.651-3.444-2.688-5.685-3.444,.364-.756,.812-1.483,1.288-2.184Z" style="fill:none; stroke:#fff; stroke-miterlimit:10; stroke-width:.5px;"/><path d="M322.857,34.773c0-1.539-.056-2.408-.224-3.416,1.063,.028,2.128,.084,3.08,.196,.252,.028,.448,.14,.448,.28,0,.225-.057,.393-.141,.588-.14,.363-.195,.98-.195,2.296v.925h4.928c2.716,0,3.668-.057,3.836-.057,.28,0,.308,.027,.308,.309,0,.168-.056,1.203-.056,4.312v4.088c0,5.208,.056,6.188,.056,6.356,0,.279-.027,.308-.308,.308h-2.353c-.279,0-.308-.028-.308-.308v-.953h-6.104v1.82c0,3.332,.027,5.04,.027,5.18,0,.28-.027,.309-.28,.309h-2.491c-.252,0-.28-.028-.28-.309,0-.168,.056-1.848,.056-5.151v-1.849h-5.907v1.064c0,.28-.028,.309-.309,.309h-2.352c-.28,0-.309-.028-.309-.309,0-.168,.057-1.148,.057-6.384v-3.64c0-3.641-.057-4.648-.057-4.844,0-.281,.028-.309,.309-.309,.195,0,1.147,.057,3.836,.057h4.731v-.869Zm-5.907,6.553h5.907v-3.137h-5.907v3.137Zm5.907,5.824v-3.332h-5.907v3.332h5.907Zm2.969-8.961v3.137h6.104v-3.137h-6.104Zm6.104,8.961v-3.332h-6.104v3.332h6.104Z" style="fill:none; stroke:#fff; stroke-miterlimit:10; stroke-width:.5px;"/><path d="M351.445,33.234c.477,.111,.673,.252,.673,.531,0,.309-.169,.645-.28,.924-.141,.393-.252,1.26-.393,3.416-.279,4.312-.42,7.168-.42,10.836,0,2.828,.336,3.473,2.576,3.473,2.492,0,6.384-1.512,9.8-5.152,.112,1.064,.364,1.988,.645,2.66,.14,.309,.224,.504,.224,.672,0,.252-.112,.477-.56,.868-3.024,2.772-6.973,4.2-10.612,4.2-3.584,0-5.264-1.428-5.264-5.713,0-4.703,.252-8.735,.392-12.096,.056-1.652,.14-3.443-.28-5.123,1.288,.139,2.633,.279,3.5,.504Z" style="fill:none; stroke:#fff; stroke-miterlimit:10; stroke-width:.5px;"/><path d="M381.377,50.789c.588,1.148,1.147,1.849,2.296,2.324,.979,.393,2.744,.561,5.18,.561,3.612,0,7.868-.195,12.04-.616-.392,.589-.644,1.345-.756,2.185q-.14,.896-1.036,.951c-3.556,.196-6.888,.28-9.8,.28-2.884,0-5.208-.252-6.552-.812-1.288-.532-2.044-1.316-2.744-2.492-.868,.84-1.848,1.68-2.884,2.464-.28,.224-.448,.392-.561,.56-.14,.196-.252,.28-.42,.28-.112,0-.28-.14-.392-.364-.393-.728-.756-1.623-1.148-2.631,.729-.337,1.12-.533,1.652-.869,.812-.504,1.624-1.147,2.352-1.791v-6.188h-1.372c-1.512,0-1.903,.056-2.044,.056-.308,0-.336-.027-.336-.336v-2.156c0-.279,.028-.308,.336-.308,.141,0,.532,.056,2.044,.056h1.792c1.484,0,1.933-.056,2.101-.056,.279,0,.308,.028,.308,.308,0,.168-.056,.953-.056,2.66v5.936Zm-1.736-12.543c-.196,.14-.28,.195-.364,.195s-.14-.056-.224-.195c-1.036-1.68-2.184-3.192-3.444-4.368-.224-.196-.168-.28,.141-.476l1.567-1.037c.309-.195,.364-.223,.588-.027,1.288,1.204,2.492,2.576,3.5,4.172,.168,.252,.168,.309-.14,.532l-1.624,1.204Zm9.912-5.377c1.288,0,2.184-.055,2.548-.055,.196,0,.28,.14,.28,.308,0,.644-.028,2.212,.336,4.116,.812,4.647,3.556,9.072,7.868,11.815-.477,.532-1.093,1.372-1.484,2.185-.224,.42-.336,.615-.504,.615-.14,0-.336-.111-.616-.363-3.416-2.744-5.712-6.44-6.804-10.641-1.064,4.256-3.136,7.588-6.384,10.416-.309,.252-.477,.393-.616,.393s-.28-.168-.588-.532c-.588-.784-1.176-1.288-1.736-1.652,4.48-3.136,7-7.504,7.645-13.888h-2.437c-1.735,0-2.24,.057-2.408,.057-.308,0-.336-.029-.336-.337v-2.184c0-.28,.028-.308,.336-.308,.168,0,.673,.055,2.408,.055h2.492Z" style="fill:none; stroke:#fff; stroke-miterlimit:10; stroke-width:.5px;"/><path d="M425.981,40.766c.056-.615,.056-1.148-.028-1.904,1.456,.365,2.576,.785,3.248,1.205,.252,.14,.392,.504,.196,.756-.168,.363-.364,.672-.448,1.092-.225,1.176-.504,2.408-.784,3.611,1.596,.812,3.332,1.904,4.368,2.688,.28,.168,.252,.308,.168,.588-.28,.672-.868,1.849-1.204,2.408-.084,.14-.168,.196-.252,.196-.112,0-.224-.084-.336-.196-1.232-1.063-2.353-1.876-3.668-2.632-1.428,3.22-2.94,5.264-5.656,7.363-.252,.196-.392,.309-.56,.309-.112,0-.225-.057-.42-.196-.757-.616-1.456-.896-2.437-1.147,3.5-2.437,5.208-4.76,6.272-7.588-1.54-.785-3.528-1.4-5.544-1.709-1.484,3.08-2.296,4.48-3.416,5.601-1.036,1.092-2.156,1.54-3.584,1.54-1.624,0-3.332-1.12-3.332-3.836,0-3.473,3.584-6.188,8.26-6.188,.924-2.324,1.624-4.285,2.324-6.637-1.54,.168-2.94,.336-3.864,.448-.392,.056-.812,.14-1.26,.308-.141,.057-.336,.112-.504,.112-.225,0-.364-.112-.448-.308-.252-.561-.532-1.652-.812-3.053,.841,.168,1.624,.196,2.465,.168,1.344,0,2.743-.14,4.34-.363,.699-.112,1.008-.252,1.372-.477,.111-.084,.252-.111,.363-.111,.141,0,.28,.027,.393,.111,.7,.42,1.372,.98,1.903,1.54,.168,.168,.252,.308,.252,.476s-.111,.309-.279,.477c-.42,.393-.532,.924-.756,1.456-.729,1.903-1.513,4.088-2.353,6.104,1.765,.223,3.416,.643,5.433,1.399,.279-1.288,.476-2.353,.588-3.612Zm-14.784,7.812c0,.896,.308,1.287,.979,1.287,.532,0,1.064-.363,1.624-1.063,.645-.812,1.316-1.933,2.044-3.416-2.855,.112-4.647,1.597-4.647,3.192Z" style="fill:none; stroke:#fff; stroke-miterlimit:10; stroke-width:.5px;"/></g></g><g><g><path d="M10.214,46.787c.054,.066,.097,.12,.138,.176,.426,.584,.505,1.352,.208,2.01-1.198,2.648-1.003,5.695,.524,8.15,2.521,4.052,7.868,5.298,11.92,2.777,4.051-2.52,5.297-7.867,2.776-11.919-2.172-3.492-6.543-4.976-10.392-3.528-.895,.337-1.904-.006-2.41-.818l-5.257-8.451c-.584-.939-1.823-1.228-2.762-.643s-1.228,1.824-.644,2.763l5.9,9.484Z" style="fill:#fff;"/><path d="M25.123,63.307c-5.93,3.689-13.757,1.866-17.447-4.064-2.035-3.27-2.457-7.254-1.198-10.863L.907,39.423c-1.753-2.818-.886-6.537,1.932-8.29,2.818-1.753,6.536-.887,8.289,1.931l4.448,7.149c5.204-1.203,10.729,1.015,13.611,5.647,3.689,5.93,1.867,13.757-4.063,17.446Zm-14.909-16.52c.054,.066,.097,.12,.138,.176,.426,.584,.505,1.352,.208,2.01-1.198,2.648-1.003,5.695,.524,8.15,2.521,4.052,7.868,5.298,11.92,2.777,4.051-2.52,5.297-7.867,2.776-11.919-2.172-3.492-6.543-4.976-10.392-3.528-.895,.337-1.904-.006-2.41-.818l-5.257-8.451c-.584-.939-1.823-1.228-2.762-.643s-1.228,1.824-.644,2.763l5.9,9.484Z" style="fill:#231815;"/><path d="M20.087,59.097l-3.278,2.039c-2.968,1.847-6.886,.934-8.733-2.035-1.847-2.968-.934-6.886,2.034-8.732l3.278-2.039c2.968-1.847,6.886-.934,8.732,2.034,1.847,2.969,.935,6.886-2.034,8.733Zm-7.857-5.321c-1.089,.678-1.424,2.116-.747,3.205s2.116,1.425,3.206,.747l3.278-2.039c1.089-.678,1.424-2.116,.746-3.206s-2.116-1.424-3.205-.747l-3.278,2.039Z" style="fill:#231815;"/></g><g><polygon points="74.433 46.363 74.51 47.045 74.443 47.724 74.229 48.387 74.365 49.087 74.228 49.756 74.044 50.414 74.212 51.153 73.768 51.746 73.309 52.314 73.732 53.177 72.913 53.6 72.691 54.237 72.655 54.966 72.691 55.755 71.745 56.021 71.505 56.662 71.527 57.486 70.729 57.77 70.284 58.28 70.042 58.951 69.457 59.344 69.206 60.032 68.646 60.439 68.366 61.134 67.924 61.676 66.986 61.623 66.745 62.416 66.015 62.574 65.592 63.164 65.079 63.64 64.565 64.134 63.644 63.868 63.094 64.279 62.575 64.78 61.792 64.664 61.258 65.164 60.588 65.304 60.01 65.754 59.308 65.779 58.604 65.743 57.995 66.18 57.341 66.463 56.589 65.92 55.944 66.329 55.27 66.64 54.576 66.605 53.89 66.41 53.219 66.165 52.51 66.427 51.857 66.113 51.198 65.931 50.515 65.881 49.85 65.736 49.153 65.698 48.572 65.263 47.877 65.198 47.278 64.855 46.696 64.493 46.093 64.19 45.195 64.456 44.632 64.038 44.352 63.169 43.734 62.886 42.883 62.921 42.577 62.18 42.12 61.667 41.415 61.451 40.99 60.904 40.389 60.544 40.032 59.941 39.236 59.734 39.295 58.79 38.675 58.417 38.236 57.893 37.669 57.449 37.687 56.629 36.944 56.274 36.705 55.62 36.418 54.996 36.537 54.197 35.776 53.776 35.722 53.063 35.207 52.51 35.667 51.662 35.043 51.123 34.672 50.499 34.776 49.778 34.837 49.078 34.418 48.436 34.936 47.709 34.413 47.053 34.356 46.363 34.473 45.675 34.864 45.012 34.91 44.337 34.898 43.654 35.087 42.997 34.655 42.218 35.351 41.672 35.337 40.966 35.709 40.369 35.66 39.634 35.865 38.978 35.993 38.285 36.136 37.587 37.135 37.32 37.445 36.725 37.213 35.798 37.977 35.47 38.102 34.728 38.939 34.5 39.105 33.77 39.459 33.175 40.034 32.776 40.664 32.444 40.825 31.633 41.682 31.568 41.749 30.59 42.432 30.342 42.934 29.863 43.709 29.788 44.142 29.198 44.904 29.154 45.533 28.904 45.923 28.163 46.739 28.314 47.379 28.107 47.896 27.566 48.526 27.298 49.101 26.822 49.757 26.586 50.537 26.929 51.149 26.49 51.895 26.869 52.521 26.384 53.182 26 53.887 26.22 54.576 26.026 55.27 26.105 55.953 26.267 56.649 26.237 57.335 26.32 57.923 26.986 58.595 27.053 59.33 26.878 59.89 27.42 60.558 27.534 61.187 27.78 61.82 28.01 62.619 27.86 63.042 28.573 63.826 28.523 64.338 29.011 65.043 29.161 65.517 29.691 66.175 29.939 66.873 30.155 67.156 30.908 67.559 31.481 68.43 31.536 68.679 32.267 68.956 32.94 69.605 33.264 70.328 33.553 70.596 34.22 70.802 34.914 71.232 35.443 71.507 36.071 72.049 36.542 72.442 37.109 72.994 37.607 73.293 38.235 73.412 38.936 73.32 39.702 73.697 40.294 74.148 40.879 74.313 41.553 74.432 42.237 74.249 42.97 74.485 43.625 74.71 44.292 74.189 45.019 74.496 45.681 74.433 46.363" style="fill:#ed6c00;"/><g><circle cx="46.699" cy="38.916" r="2.376" style="fill:#fff;"/><circle cx="61.092" cy="38.916" r="2.376" style="fill:#fff;"/><path d="M54.278,50.787h-4.344c-.944,0-1.591-.951-1.244-1.829l3.705-9.378c.109-.275,.419-.41,.694-.301l1.049,.415c.275,.109,.41,.419,.301,.694l-2.662,6.738c-.277,.702,.24,1.463,.995,1.463h1.504c.295,0,.535,.24,.535,.535v1.128c0,.295-.24,.535-.535,.535Z" style="fill:#fff;"/><path d="M51.702,59.013c-.567,0-1.147-.022-1.741-.065-.299-.022-.527-.292-.498-.591l.142-1.491c.028-.289,.286-.497,.575-.476,4.091,.297,7.408-.572,9.621-2.518,2.067-1.817,3.221-4.554,3.436-8.139,.017-.29,.256-.519,.547-.509l1.496,.05c.3,.01,.54,.271,.523,.571-.248,4.313-1.695,7.659-4.305,9.954-2.41,2.12-5.767,3.214-9.796,3.214Z" style="fill:#fff;"/></g></g></g></g></g></svg>