<?xml version="1.0" encoding="UTF-8"?><svg id="b" xmlns="http://www.w3.org/2000/svg" xmlns:xlink="http://www.w3.org/1999/xlink" viewBox="0 0 640.922 110.4"><defs><linearGradient id="d" x1="-105.778" y1="-93.394" x2="576.83" y2="119.921" gradientUnits="userSpaceOnUse"><stop offset="0" stop-color="#e9331e"/><stop offset="1" stop-color="#ed6c00"/></linearGradient></defs><g id="c"><g><g><rect x="102.123" y="3.6" width="535.199" height="103.199" rx="14.551" ry="14.551" style="fill:url(#d);"/><path d="M622.771,7.2c6.048,0,10.951,4.903,10.951,10.951V92.249c0,6.048-4.903,10.951-10.951,10.951H116.673c-6.048,0-10.951-4.903-10.951-10.951V18.151c0-6.048,4.903-10.951,10.951-10.951h506.098m0-7.2H116.673c-10.009,0-18.151,8.143-18.151,18.151V92.249c0,10.009,8.143,18.151,18.151,18.151h506.098c10.009,0,18.151-8.143,18.151-18.151V18.151c0-10.009-8.143-18.151-18.151-18.151h0Z" style="fill:#fff;"/></g><path d="M592.922,62.4h40.8v30.205c0,5.848-4.748,10.595-10.595,10.595h-30.205V62.4h0Z" style="fill:#fff;"/><g><polyline points="609.295 78 617.935 85.2 609.295 92.4" style="fill:none; stroke:#ed6c00; stroke-linecap:round; stroke-miterlimit:10; stroke-width:2.88px;"/><polyline points="617.935 78 626.575 85.2 617.935 92.4" style="fill:none; stroke:#ed6c00; stroke-linecap:round; stroke-miterlimit:10; stroke-width:2.88px;"/></g><g><g><path d="M225.242,43.577c2.554,0,3.394-.066,3.562-.066,.336,0,.37,.033,.37,.369v2.386c0,.369-.034,.403-.37,.403-.168,0-1.008-.067-3.562-.067h-3.091c-2.554,0-3.394,.067-3.562,.067-.336,0-.37-.034-.37-.403v-2.386c0-.336,.034-.369,.37-.369,.168,0,1.008,.066,3.562,.066h3.091Zm3.058,19.085c0,3.897,.067,4.637,.067,4.839,0,.336-.033,.369-.369,.369h-2.285c-.336,0-.37-.033-.37-.369v-.941h-2.956v1.546c0,.336-.034,.37-.37,.37h-2.251c-.369,0-.403-.034-.403-.37,0-.201,.067-.975,.067-5.04v-2.15c0-2.117-.067-2.923-.067-3.158,0-.336,.034-.37,.403-.37,.201,0,.907,.067,3.058,.067h2.083c2.15,0,2.856-.067,3.092-.067,.336,0,.369,.034,.369,.37,0,.201-.067,1.008-.067,2.587v2.318Zm-3.226-23.688c2.15,0,2.822-.067,3.024-.067,.369,0,.403,.033,.403,.369v2.218c0,.336-.034,.37-.403,.37-.202,0-.874-.067-3.024-.067h-2.251c-2.184,0-2.856,.067-3.058,.067-.336,0-.369-.034-.369-.37v-2.218c0-.336,.033-.369,.369-.369,.201,0,.874,.067,3.058,.067h2.251Zm-.303,9.374c2.017,0,2.621-.067,2.823-.067,.369,0,.403,.034,.403,.37v2.184c0,.336-.034,.37-.403,.37-.202,0-.807-.067-2.823-.067h-1.813c-2.05,0-2.655,.067-2.856,.067-.336,0-.369-.034-.369-.37v-2.184c0-.336,.033-.37,.369-.37,.201,0,.807,.067,2.856,.067h1.813Zm0,4.536c2.017,0,2.621-.067,2.823-.067,.369,0,.403,.034,.403,.37v2.15c0,.336-.034,.369-.403,.369-.202,0-.807-.067-2.823-.067h-1.813c-2.05,0-2.655,.067-2.856,.067-.336,0-.369-.033-.369-.369v-2.15c0-.336,.033-.37,.369-.37,.201,0,.807,.067,2.856,.067h1.813Zm-2.385,7.358v3.528h2.956v-3.528h-2.956Zm26.712,2.251c0,.37-.034,.403-.37,.403-.101,0-.672-.033-1.848-.033,.033,.739,.067,1.444,.067,2.016,0,1.411-.168,2.016-.773,2.587-.604,.571-1.411,.672-3.965,.706q-1.008,0-1.243-1.042c-.168-.705-.47-1.479-.739-1.948,.941,.066,1.747,.101,2.554,.101,.907,0,1.109-.235,1.109-.907v-1.546h-9.979v1.513c0,2.385,.067,3.527,.067,3.729,0,.302-.034,.336-.37,.336h-2.352c-.336,0-.37-.034-.37-.336,0-.235,.067-1.243,.067-3.629v-1.579c-.975,0-1.411,.033-1.512,.033-.336,0-.37-.033-.37-.403v-1.848c0-.336,.034-.37,.37-.37,.101,0,.537,.034,1.512,.067v-3.897c0-2.352-.067-3.427-.067-3.662,0-.336,.034-.37,.37-.37,.201,0,1.21,.067,4.166,.067h1.781v-1.579h-3.092c-3.226,0-4.334,.067-4.535,.067-.336,0-.37-.034-.37-.403v-1.747c0-.336,.034-.37,.37-.37,.201,0,1.31,.067,4.535,.067v-1.68c-1.982,.033-2.721,.067-2.89,.067-.336,0-.369-.034-.369-.37v-1.579c0-.303,.033-.336,.369-.336,.169,0,.907,.067,2.89,.067v-1.646c-2.587,.033-3.562,.067-3.729,.067-.336,0-.369-.034-.369-.403v-1.613c0-.336,.033-.369,.369-.369,.168,0,1.143,.067,3.729,.067v-.538c0-1.176-.033-1.881-.201-2.52,1.108,.067,2.15,.134,3.058,.235,.336,.033,.504,.168,.504,.269,0,.201-.067,.336-.168,.537-.168,.303-.201,.639-.201,1.579v.438h3.326v-.538c0-1.176-.034-1.881-.202-2.52,1.109,.067,2.15,.134,3.058,.235,.336,.033,.504,.168,.504,.269,0,.201-.101,.403-.201,.604-.168,.303-.168,.571-.168,1.512v.438c3.058,0,4.133-.067,4.368-.067,.336,0,.369,.033,.369,.369v1.613c0,.369-.033,.403-.369,.403-.235,0-1.311-.067-4.368-.067v1.646c2.386,0,3.326-.067,3.528-.067,.336,0,.369,.033,.369,.336v1.579c0,.336-.033,.37-.369,.37-.202,0-1.143-.034-3.528-.067v1.68h.504c3.259,0,4.368-.067,4.569-.067,.303,0,.336,.034,.336,.37v1.747c0,.369-.033,.403-.336,.403-.201,0-1.311-.067-4.569-.067h-3.797v1.579h2.218c2.957,0,3.998-.067,4.2-.067,.336,0,.369,.034,.369,.37,0,.201-.067,1.512-.067,3.965v3.595c1.21-.033,1.781-.067,1.882-.067,.336,0,.37,.034,.37,.37v1.848Zm-11.861-5.947v-1.747h-3.326v1.747h3.326Zm0,3.797v-1.78h-3.326v1.78h3.326Zm3.192-15.657v-1.646h-3.326v1.646h3.326Zm0,3.83v-1.68h-3.326v1.68h3.326Zm-.336,6.283v1.747h3.797v-1.747h-3.797Zm3.797,5.544v-1.78h-3.797v1.78h3.797Z" style="fill:#fff;"/><path d="M264.99,48.551c0,2.452-.033,4.502-.134,6.283,1.881-2.017,2.855-4.1,3.662-6.687,.201-.639,.303-1.513,.369-2.252,.907,.202,2.05,.403,2.822,.639,.403,.135,.571,.269,.571,.471s-.101,.336-.201,.471c-.201,.234-.336,.504-.538,1.142-.168,.538-.302,1.042-.47,1.513,.873,1.377,1.948,2.688,3.461,3.897-.438,.437-1.042,.975-1.411,1.579-.27,.471-.438,.705-.605,.705s-.369-.201-.672-.57c-.873-.941-1.512-1.748-2.016-2.588-.504,1.008-1.143,1.982-1.882,2.924-.369,.504-.538,.705-.706,.705-.134,0-.269-.135-.437-.303-.537-.537-1.479-1.176-1.982-1.444-.101,1.68-.269,3.125-.471,4.536-.47,2.99-1.243,5.309-2.52,7.828-.235,.438-.369,.673-.537,.673s-.37-.202-.673-.538c-.705-.807-1.579-1.612-2.184-1.982,1.311-2.184,2.184-4.401,2.621-7.426,.369-2.553,.537-5.51,.537-10.248,0-4.469-.067-6.484-.067-6.686,0-.303,.034-.336,.37-.336,.201,0,1.311,.066,4.502,.066h6.687v-.772c0-1.008-.033-1.882-.201-2.722,1.311,.034,2.452,.101,3.562,.202,.336,.033,.537,.201,.537,.336,0,.234-.101,.403-.201,.638-.135,.27-.235,.739-.235,1.479v.84h7.627c3.192,0,4.268-.066,4.469-.066,.303,0,.336,.033,.336,.336v2.419c0,.336-.033,.369-.336,.369-.201,0-1.276-.066-4.469-.066h-19.186v4.637Zm4.268,18.748c-3.293,0-4.401,.067-4.604,.067-.336,0-.369-.033-.369-.403v-2.386c0-.336,.033-.369,.369-.369,.202,0,1.311,.067,4.604,.067h5.309v-3.394h-3.024c-3.226,0-4.367,.066-4.569,.066-.369,0-.403-.033-.403-.402v-2.285c0-.336,.034-.369,.403-.369,.202,0,1.344,.066,4.569,.066h3.024v-9.441c0-1.646-.033-2.587-.201-3.662,1.243,.033,2.217,.101,3.359,.235,.336,.033,.538,.201,.538,.403,0,.234-.067,.504-.202,.739-.201,.402-.201,.974-.201,2.352v6.183c1.948-2.083,2.957-4.167,3.797-6.721,.235-.772,.369-1.478,.403-2.15,.873,.169,2.016,.403,2.788,.673,.37,.101,.571,.269,.571,.437,0,.201-.101,.336-.235,.471-.201,.234-.336,.437-.537,1.142l-.37,1.143c1.075,1.613,2.453,3.092,4.268,4.401-.504,.403-1.143,1.075-1.512,1.714-.27,.437-.438,.672-.605,.672s-.369-.168-.705-.504c-1.008-1.008-1.949-2.15-2.688-3.326-.604,1.176-1.31,2.285-2.15,3.326-.302,.403-.47,.604-.638,.604-.202,0-.403-.201-.773-.57-.47-.471-1.142-.941-1.612-1.143v3.023h4.065c3.226,0,4.334-.066,4.536-.066,.369,0,.403,.033,.403,.369v2.285c0,.369-.034,.402-.403,.402-.202,0-1.311-.066-4.536-.066h-4.065v3.394h6.283c3.259,0,4.401-.067,4.603-.067,.337,0,.37,.033,.37,.369v2.386c0,.37-.033,.403-.37,.403-.201,0-1.344-.067-4.603-.067h-14.885Z" style="fill:#fff;"/><path d="M315.625,45.19c-.772,5.712-2.184,10.953-4.2,14.481-1.444,2.521-3.191,3.864-5.712,3.864-2.956,0-5.947-3.158-5.947-8.636,0-3.226,1.378-6.316,3.797-8.735,2.822-2.822,6.384-4.301,10.92-4.301,8.064,0,12.802,4.973,12.802,11.659,0,6.249-3.528,10.181-10.349,12.23-.706,.201-1.008,.066-1.445-.605-.369-.571-1.074-1.344-2.352-2.116,5.679-1.345,10.147-3.696,10.147-10.047,0-3.998-3.024-7.795-7.526-7.795h-.135Zm-9.643,3.259c-1.613,1.814-2.621,4.066-2.621,6.217,0,3.091,1.243,4.805,2.284,4.805,.874,0,1.613-.438,2.521-2.05,1.479-2.722,2.99-7.561,3.562-12.029-2.352,.471-4.233,1.411-5.745,3.058Z" style="fill:#fff;"/><path d="M345.092,49.491c-1.68,.135-3.394,.269-5.645,.269-.571,0-.739-.201-.807-.705-.101-.639-.234-1.747-.369-2.924,.873,.135,1.747,.168,2.621,.168,1.411,0,2.855-.134,4.267-.269,0-1.108,.034-2.386,.034-3.83,0-.874-.034-1.849-.235-2.722,1.68,.101,3.091,.336,3.998,.604,.403,.101,.672,.336,.672,.639,0,.135-.067,.303-.201,.537-.235,.438-.403,.874-.471,1.311-.101,.874-.134,1.714-.168,2.789,1.479-.303,2.856-.739,4.301-1.243,.303-.101,.538-.033,.571,.303,.135,.84,.201,1.747,.201,2.62,0,.336-.101,.438-.437,.538-2.218,.705-2.789,.873-4.805,1.276-.033,1.613-.033,3.26-.067,4.872,3.158-1.344,6.115-1.882,8.266-1.848,4.167,.033,7.157,2.688,7.157,6.72,0,4.301-2.756,6.821-7.291,6.821-.975,0-2.05-.135-2.756-.303-.537-.135-.739-.471-.739-1.008-.066-.739-.302-1.882-1.008-2.856,1.613,.538,2.957,.604,4.2,.604,1.882,0,3.629-1.075,3.629-3.46,0-2.185-1.344-3.394-3.696-3.394-1.915,0-4.233,.504-7.694,2.284,.033,1.411,.067,2.554,.135,4.032,.101,1.479,.269,3.595,.269,4.368,0,.47,.067,.975-.504,1.108-.739,.202-1.814,.37-2.486,.403-.37,.033-.504-.235-.807-.672-.907-1.243-2.654-2.856-4.771-4.301-.369,.201-.772,.471-1.075,.739-.168,.168-.403,.235-.571,.235-.269,0-.537-.202-.738-.538-.37-.604-1.042-2.016-1.546-3.125,.873-.201,1.982-.57,3.091-1.176,1.445-.807,3.024-1.714,5.477-3.125v-5.745Zm-3.124,11.559c.94,.504,2.083,1.075,3.158,1.512,.269,.067,.369,.033,.336-.269-.067-.874-.135-2.419-.202-3.528-.94,.639-2.083,1.411-3.292,2.285Zm16.061-17.641c.235-.369,.336-.47,.571-.402,3.091,.907,5.376,2.318,7.123,4.099,.134,.135,.201,.235,.201,.336s-.067,.202-.134,.336c-.438,.672-1.311,1.714-1.814,2.386-.101,.135-.571,.168-.672,0-1.781-1.982-4.133-3.226-6.821-4.133,.437-.907,.975-1.78,1.546-2.621Z" style="fill:#fff;"/><path d="M387.428,41.729c0-1.848-.067-2.89-.269-4.099,1.276,.033,2.554,.101,3.696,.234,.302,.034,.537,.168,.537,.336,0,.27-.067,.471-.168,.706-.168,.437-.235,1.176-.235,2.755v1.109h5.914c3.259,0,4.401-.067,4.603-.067,.336,0,.37,.033,.37,.369,0,.202-.067,1.445-.067,5.175v4.905c0,6.25,.067,7.426,.067,7.627,0,.337-.034,.37-.37,.37h-2.822c-.336,0-.369-.033-.369-.37v-1.142h-7.325v2.184c0,3.998,.034,6.048,.034,6.216,0,.336-.034,.37-.336,.37h-2.991c-.302,0-.336-.034-.336-.37,0-.201,.067-2.218,.067-6.183v-2.217h-7.09v1.276c0,.336-.033,.37-.369,.37h-2.822c-.336,0-.37-.034-.37-.37,0-.201,.067-1.378,.067-7.661v-4.367c0-4.368-.067-5.578-.067-5.813,0-.336,.034-.369,.37-.369,.235,0,1.377,.067,4.604,.067h5.678v-1.042Zm-7.09,7.862h7.09v-3.763h-7.09v3.763Zm7.09,6.989v-3.999h-7.09v3.999h7.09Zm3.562-10.752v3.763h7.325v-3.763h-7.325Zm7.325,10.752v-3.999h-7.325v3.999h7.325Z" style="fill:#fff;"/><path d="M421.733,39.882c.571,.134,.807,.302,.807,.639,0,.369-.201,.772-.336,1.108-.168,.471-.303,1.512-.471,4.099-.336,5.175-.504,8.602-.504,13.004,0,3.394,.403,4.166,3.092,4.166,2.99,0,7.66-1.814,11.76-6.183,.134,1.277,.437,2.386,.772,3.192,.168,.369,.269,.604,.269,.807,0,.302-.134,.571-.672,1.041-3.629,3.326-8.366,5.04-12.734,5.04-4.301,0-6.316-1.714-6.316-6.854,0-5.645,.302-10.482,.471-14.515,.066-1.982,.168-4.133-.337-6.149,1.546,.168,3.159,.337,4.2,.605Z" style="fill:#fff;"/><path d="M457.651,60.948c.706,1.378,1.378,2.218,2.755,2.789,1.177,.471,3.293,.672,6.217,.672,4.334,0,9.441-.234,14.447-.739-.47,.706-.772,1.613-.907,2.621q-.168,1.075-1.243,1.143c-4.267,.235-8.266,.336-11.76,.336-3.461,0-6.249-.303-7.862-.975-1.546-.639-2.453-1.579-3.293-2.99-1.041,1.008-2.218,2.016-3.461,2.957-.336,.269-.537,.47-.672,.672-.168,.235-.302,.336-.504,.336-.134,0-.336-.168-.47-.437-.471-.874-.907-1.949-1.378-3.158,.873-.403,1.344-.639,1.982-1.042,.975-.604,1.948-1.378,2.822-2.15v-7.426h-1.646c-1.814,0-2.285,.067-2.453,.067-.369,0-.403-.033-.403-.403v-2.587c0-.336,.034-.37,.403-.37,.168,0,.639,.067,2.453,.067h2.15c1.781,0,2.318-.067,2.521-.067,.336,0,.369,.034,.369,.37,0,.201-.067,1.143-.067,3.191v7.123Zm-2.083-15.053c-.235,.169-.336,.235-.437,.235-.102,0-.168-.066-.27-.235-1.243-2.016-2.62-3.83-4.133-5.241-.269-.235-.201-.336,.169-.571l1.881-1.243c.37-.235,.438-.269,.706-.033,1.545,1.444,2.99,3.091,4.2,5.006,.201,.303,.201,.37-.168,.639l-1.949,1.444Zm11.895-6.451c1.545,0,2.62-.066,3.058-.066,.235,0,.336,.168,.336,.369,0,.773-.034,2.654,.403,4.939,.974,5.577,4.267,10.887,9.441,14.179-.571,.639-1.311,1.646-1.781,2.621-.269,.504-.403,.739-.604,.739-.168,0-.403-.135-.739-.437-4.1-3.293-6.854-7.729-8.165-12.769-1.276,5.107-3.763,9.105-7.66,12.499-.37,.303-.571,.471-.739,.471s-.336-.201-.706-.639c-.705-.94-1.411-1.545-2.083-1.982,5.376-3.763,8.4-9.004,9.173-16.665h-2.923c-2.084,0-2.688,.067-2.89,.067-.37,0-.403-.034-.403-.403v-2.621c0-.336,.033-.369,.403-.369,.201,0,.806,.066,2.89,.066h2.99Z" style="fill:#fff;"/><path d="M511.176,48.92c.067-.739,.067-1.378-.033-2.285,1.747,.438,3.091,.941,3.897,1.445,.302,.168,.47,.604,.235,.907-.202,.437-.438,.807-.538,1.311-.269,1.411-.604,2.89-.94,4.334,1.915,.975,3.998,2.285,5.241,3.226,.336,.202,.303,.37,.201,.706-.336,.806-1.041,2.217-1.444,2.89-.101,.168-.201,.234-.303,.234-.134,0-.269-.101-.403-.234-1.478-1.277-2.822-2.252-4.401-3.159-1.713,3.864-3.527,6.317-6.787,8.837-.302,.235-.471,.37-.672,.37-.135,0-.269-.067-.504-.235-.907-.739-1.747-1.075-2.923-1.378,4.199-2.923,6.249-5.712,7.526-9.105-1.849-.94-4.234-1.68-6.653-2.05-1.78,3.696-2.755,5.376-4.099,6.721-1.243,1.31-2.588,1.848-4.301,1.848-1.949,0-3.999-1.344-3.999-4.604,0-4.166,4.301-7.425,9.912-7.425,1.109-2.789,1.949-5.142,2.789-7.964-1.849,.202-3.528,.403-4.637,.538-.471,.067-.975,.168-1.513,.369-.168,.067-.402,.135-.604,.135-.269,0-.437-.135-.537-.37-.303-.672-.639-1.982-.975-3.662,1.008,.202,1.948,.235,2.957,.202,1.612,0,3.292-.169,5.208-.438,.84-.134,1.209-.302,1.646-.571,.134-.101,.302-.134,.437-.134,.168,0,.336,.033,.47,.134,.841,.504,1.646,1.177,2.285,1.849,.202,.201,.303,.369,.303,.571s-.135,.369-.336,.57c-.504,.471-.639,1.109-.907,1.748-.874,2.284-1.814,4.905-2.822,7.324,2.116,.269,4.099,.772,6.518,1.68,.337-1.545,.571-2.822,.706-4.334Zm-17.741,9.374c0,1.075,.37,1.546,1.177,1.546,.638,0,1.276-.437,1.948-1.276,.773-.975,1.579-2.318,2.453-4.1-3.428,.135-5.578,1.915-5.578,3.83Z" style="fill:#fff;"/></g><g><path d="M225.242,43.577c2.554,0,3.394-.066,3.562-.066,.336,0,.37,.033,.37,.369v2.386c0,.369-.034,.403-.37,.403-.168,0-1.008-.067-3.562-.067h-3.091c-2.554,0-3.394,.067-3.562,.067-.336,0-.37-.034-.37-.403v-2.386c0-.336,.034-.369,.37-.369,.168,0,1.008,.066,3.562,.066h3.091Zm3.058,19.085c0,3.897,.067,4.637,.067,4.839,0,.336-.033,.369-.369,.369h-2.285c-.336,0-.37-.033-.37-.369v-.941h-2.956v1.546c0,.336-.034,.37-.37,.37h-2.251c-.369,0-.403-.034-.403-.37,0-.201,.067-.975,.067-5.04v-2.15c0-2.117-.067-2.923-.067-3.158,0-.336,.034-.37,.403-.37,.201,0,.907,.067,3.058,.067h2.083c2.15,0,2.856-.067,3.092-.067,.336,0,.369,.034,.369,.37,0,.201-.067,1.008-.067,2.587v2.318Zm-3.226-23.688c2.15,0,2.822-.067,3.024-.067,.369,0,.403,.033,.403,.369v2.218c0,.336-.034,.37-.403,.37-.202,0-.874-.067-3.024-.067h-2.251c-2.184,0-2.856,.067-3.058,.067-.336,0-.369-.034-.369-.37v-2.218c0-.336,.033-.369,.369-.369,.201,0,.874,.067,3.058,.067h2.251Zm-.303,9.374c2.017,0,2.621-.067,2.823-.067,.369,0,.403,.034,.403,.37v2.184c0,.336-.034,.37-.403,.37-.202,0-.807-.067-2.823-.067h-1.813c-2.05,0-2.655,.067-2.856,.067-.336,0-.369-.034-.369-.37v-2.184c0-.336,.033-.37,.369-.37,.201,0,.807,.067,2.856,.067h1.813Zm0,4.536c2.017,0,2.621-.067,2.823-.067,.369,0,.403,.034,.403,.37v2.15c0,.336-.034,.369-.403,.369-.202,0-.807-.067-2.823-.067h-1.813c-2.05,0-2.655,.067-2.856,.067-.336,0-.369-.033-.369-.369v-2.15c0-.336,.033-.37,.369-.37,.201,0,.807,.067,2.856,.067h1.813Zm-2.385,7.358v3.528h2.956v-3.528h-2.956Zm26.712,2.251c0,.37-.034,.403-.37,.403-.101,0-.672-.033-1.848-.033,.033,.739,.067,1.444,.067,2.016,0,1.411-.168,2.016-.773,2.587-.604,.571-1.411,.672-3.965,.706q-1.008,0-1.243-1.042c-.168-.705-.47-1.479-.739-1.948,.941,.066,1.747,.101,2.554,.101,.907,0,1.109-.235,1.109-.907v-1.546h-9.979v1.513c0,2.385,.067,3.527,.067,3.729,0,.302-.034,.336-.37,.336h-2.352c-.336,0-.37-.034-.37-.336,0-.235,.067-1.243,.067-3.629v-1.579c-.975,0-1.411,.033-1.512,.033-.336,0-.37-.033-.37-.403v-1.848c0-.336,.034-.37,.37-.37,.101,0,.537,.034,1.512,.067v-3.897c0-2.352-.067-3.427-.067-3.662,0-.336,.034-.37,.37-.37,.201,0,1.21,.067,4.166,.067h1.781v-1.579h-3.092c-3.226,0-4.334,.067-4.535,.067-.336,0-.37-.034-.37-.403v-1.747c0-.336,.034-.37,.37-.37,.201,0,1.31,.067,4.535,.067v-1.68c-1.982,.033-2.721,.067-2.89,.067-.336,0-.369-.034-.369-.37v-1.579c0-.303,.033-.336,.369-.336,.169,0,.907,.067,2.89,.067v-1.646c-2.587,.033-3.562,.067-3.729,.067-.336,0-.369-.034-.369-.403v-1.613c0-.336,.033-.369,.369-.369,.168,0,1.143,.067,3.729,.067v-.538c0-1.176-.033-1.881-.201-2.52,1.108,.067,2.15,.134,3.058,.235,.336,.033,.504,.168,.504,.269,0,.201-.067,.336-.168,.537-.168,.303-.201,.639-.201,1.579v.438h3.326v-.538c0-1.176-.034-1.881-.202-2.52,1.109,.067,2.15,.134,3.058,.235,.336,.033,.504,.168,.504,.269,0,.201-.101,.403-.201,.604-.168,.303-.168,.571-.168,1.512v.438c3.058,0,4.133-.067,4.368-.067,.336,0,.369,.033,.369,.369v1.613c0,.369-.033,.403-.369,.403-.235,0-1.311-.067-4.368-.067v1.646c2.386,0,3.326-.067,3.528-.067,.336,0,.369,.033,.369,.336v1.579c0,.336-.033,.37-.369,.37-.202,0-1.143-.034-3.528-.067v1.68h.504c3.259,0,4.368-.067,4.569-.067,.303,0,.336,.034,.336,.37v1.747c0,.369-.033,.403-.336,.403-.201,0-1.311-.067-4.569-.067h-3.797v1.579h2.218c2.957,0,3.998-.067,4.2-.067,.336,0,.369,.034,.369,.37,0,.201-.067,1.512-.067,3.965v3.595c1.21-.033,1.781-.067,1.882-.067,.336,0,.37,.034,.37,.37v1.848Zm-11.861-5.947v-1.747h-3.326v1.747h3.326Zm0,3.797v-1.78h-3.326v1.78h3.326Zm3.192-15.657v-1.646h-3.326v1.646h3.326Zm0,3.83v-1.68h-3.326v1.68h3.326Zm-.336,6.283v1.747h3.797v-1.747h-3.797Zm3.797,5.544v-1.78h-3.797v1.78h3.797Z" style="fill:none; stroke:#fff; stroke-miterlimit:10; stroke-width:.6px;"/><path d="M264.99,48.551c0,2.452-.033,4.502-.134,6.283,1.881-2.017,2.855-4.1,3.662-6.687,.201-.639,.303-1.513,.369-2.252,.907,.202,2.05,.403,2.822,.639,.403,.135,.571,.269,.571,.471s-.101,.336-.201,.471c-.201,.234-.336,.504-.538,1.142-.168,.538-.302,1.042-.47,1.513,.873,1.377,1.948,2.688,3.461,3.897-.438,.437-1.042,.975-1.411,1.579-.27,.471-.438,.705-.605,.705s-.369-.201-.672-.57c-.873-.941-1.512-1.748-2.016-2.588-.504,1.008-1.143,1.982-1.882,2.924-.369,.504-.538,.705-.706,.705-.134,0-.269-.135-.437-.303-.537-.537-1.479-1.176-1.982-1.444-.101,1.68-.269,3.125-.471,4.536-.47,2.99-1.243,5.309-2.52,7.828-.235,.438-.369,.673-.537,.673s-.37-.202-.673-.538c-.705-.807-1.579-1.612-2.184-1.982,1.311-2.184,2.184-4.401,2.621-7.426,.369-2.553,.537-5.51,.537-10.248,0-4.469-.067-6.484-.067-6.686,0-.303,.034-.336,.37-.336,.201,0,1.311,.066,4.502,.066h6.687v-.772c0-1.008-.033-1.882-.201-2.722,1.311,.034,2.452,.101,3.562,.202,.336,.033,.537,.201,.537,.336,0,.234-.101,.403-.201,.638-.135,.27-.235,.739-.235,1.479v.84h7.627c3.192,0,4.268-.066,4.469-.066,.303,0,.336,.033,.336,.336v2.419c0,.336-.033,.369-.336,.369-.201,0-1.276-.066-4.469-.066h-19.186v4.637Zm4.268,18.748c-3.293,0-4.401,.067-4.604,.067-.336,0-.369-.033-.369-.403v-2.386c0-.336,.033-.369,.369-.369,.202,0,1.311,.067,4.604,.067h5.309v-3.394h-3.024c-3.226,0-4.367,.066-4.569,.066-.369,0-.403-.033-.403-.402v-2.285c0-.336,.034-.369,.403-.369,.202,0,1.344,.066,4.569,.066h3.024v-9.441c0-1.646-.033-2.587-.201-3.662,1.243,.033,2.217,.101,3.359,.235,.336,.033,.538,.201,.538,.403,0,.234-.067,.504-.202,.739-.201,.402-.201,.974-.201,2.352v6.183c1.948-2.083,2.957-4.167,3.797-6.721,.235-.772,.369-1.478,.403-2.15,.873,.169,2.016,.403,2.788,.673,.37,.101,.571,.269,.571,.437,0,.201-.101,.336-.235,.471-.201,.234-.336,.437-.537,1.142l-.37,1.143c1.075,1.613,2.453,3.092,4.268,4.401-.504,.403-1.143,1.075-1.512,1.714-.27,.437-.438,.672-.605,.672s-.369-.168-.705-.504c-1.008-1.008-1.949-2.15-2.688-3.326-.604,1.176-1.31,2.285-2.15,3.326-.302,.403-.47,.604-.638,.604-.202,0-.403-.201-.773-.57-.47-.471-1.142-.941-1.612-1.143v3.023h4.065c3.226,0,4.334-.066,4.536-.066,.369,0,.403,.033,.403,.369v2.285c0,.369-.034,.402-.403,.402-.202,0-1.311-.066-4.536-.066h-4.065v3.394h6.283c3.259,0,4.401-.067,4.603-.067,.337,0,.37,.033,.37,.369v2.386c0,.37-.033,.403-.37,.403-.201,0-1.344-.067-4.603-.067h-14.885Z" style="fill:none; stroke:#fff; stroke-miterlimit:10; stroke-width:.6px;"/><path d="M315.625,45.19c-.772,5.712-2.184,10.953-4.2,14.481-1.444,2.521-3.191,3.864-5.712,3.864-2.956,0-5.947-3.158-5.947-8.636,0-3.226,1.378-6.316,3.797-8.735,2.822-2.822,6.384-4.301,10.92-4.301,8.064,0,12.802,4.973,12.802,11.659,0,6.249-3.528,10.181-10.349,12.23-.706,.201-1.008,.066-1.445-.605-.369-.571-1.074-1.344-2.352-2.116,5.679-1.345,10.147-3.696,10.147-10.047,0-3.998-3.024-7.795-7.526-7.795h-.135Zm-9.643,3.259c-1.613,1.814-2.621,4.066-2.621,6.217,0,3.091,1.243,4.805,2.284,4.805,.874,0,1.613-.438,2.521-2.05,1.479-2.722,2.99-7.561,3.562-12.029-2.352,.471-4.233,1.411-5.745,3.058Z" style="fill:none; stroke:#fff; stroke-miterlimit:10; stroke-width:.6px;"/><path d="M345.092,49.491c-1.68,.135-3.394,.269-5.645,.269-.571,0-.739-.201-.807-.705-.101-.639-.234-1.747-.369-2.924,.873,.135,1.747,.168,2.621,.168,1.411,0,2.855-.134,4.267-.269,0-1.108,.034-2.386,.034-3.83,0-.874-.034-1.849-.235-2.722,1.68,.101,3.091,.336,3.998,.604,.403,.101,.672,.336,.672,.639,0,.135-.067,.303-.201,.537-.235,.438-.403,.874-.471,1.311-.101,.874-.134,1.714-.168,2.789,1.479-.303,2.856-.739,4.301-1.243,.303-.101,.538-.033,.571,.303,.135,.84,.201,1.747,.201,2.62,0,.336-.101,.438-.437,.538-2.218,.705-2.789,.873-4.805,1.276-.033,1.613-.033,3.26-.067,4.872,3.158-1.344,6.115-1.882,8.266-1.848,4.167,.033,7.157,2.688,7.157,6.72,0,4.301-2.756,6.821-7.291,6.821-.975,0-2.05-.135-2.756-.303-.537-.135-.739-.471-.739-1.008-.066-.739-.302-1.882-1.008-2.856,1.613,.538,2.957,.604,4.2,.604,1.882,0,3.629-1.075,3.629-3.46,0-2.185-1.344-3.394-3.696-3.394-1.915,0-4.233,.504-7.694,2.284,.033,1.411,.067,2.554,.135,4.032,.101,1.479,.269,3.595,.269,4.368,0,.47,.067,.975-.504,1.108-.739,.202-1.814,.37-2.486,.403-.37,.033-.504-.235-.807-.672-.907-1.243-2.654-2.856-4.771-4.301-.369,.201-.772,.471-1.075,.739-.168,.168-.403,.235-.571,.235-.269,0-.537-.202-.738-.538-.37-.604-1.042-2.016-1.546-3.125,.873-.201,1.982-.57,3.091-1.176,1.445-.807,3.024-1.714,5.477-3.125v-5.745Zm-3.124,11.559c.94,.504,2.083,1.075,3.158,1.512,.269,.067,.369,.033,.336-.269-.067-.874-.135-2.419-.202-3.528-.94,.639-2.083,1.411-3.292,2.285Zm16.061-17.641c.235-.369,.336-.47,.571-.402,3.091,.907,5.376,2.318,7.123,4.099,.134,.135,.201,.235,.201,.336s-.067,.202-.134,.336c-.438,.672-1.311,1.714-1.814,2.386-.101,.135-.571,.168-.672,0-1.781-1.982-4.133-3.226-6.821-4.133,.437-.907,.975-1.78,1.546-2.621Z" style="fill:none; stroke:#fff; stroke-miterlimit:10; stroke-width:.6px;"/><path d="M387.428,41.729c0-1.848-.067-2.89-.269-4.099,1.276,.033,2.554,.101,3.696,.234,.302,.034,.537,.168,.537,.336,0,.27-.067,.471-.168,.706-.168,.437-.235,1.176-.235,2.755v1.109h5.914c3.259,0,4.401-.067,4.603-.067,.336,0,.37,.033,.37,.369,0,.202-.067,1.445-.067,5.175v4.905c0,6.25,.067,7.426,.067,7.627,0,.337-.034,.37-.37,.37h-2.822c-.336,0-.369-.033-.369-.37v-1.142h-7.325v2.184c0,3.998,.034,6.048,.034,6.216,0,.336-.034,.37-.336,.37h-2.991c-.302,0-.336-.034-.336-.37,0-.201,.067-2.218,.067-6.183v-2.217h-7.09v1.276c0,.336-.033,.37-.369,.37h-2.822c-.336,0-.37-.034-.37-.37,0-.201,.067-1.378,.067-7.661v-4.367c0-4.368-.067-5.578-.067-5.813,0-.336,.034-.369,.37-.369,.235,0,1.377,.067,4.604,.067h5.678v-1.042Zm-7.09,7.862h7.09v-3.763h-7.09v3.763Zm7.09,6.989v-3.999h-7.09v3.999h7.09Zm3.562-10.752v3.763h7.325v-3.763h-7.325Zm7.325,10.752v-3.999h-7.325v3.999h7.325Z" style="fill:none; stroke:#fff; stroke-miterlimit:10; stroke-width:.6px;"/><path d="M421.733,39.882c.571,.134,.807,.302,.807,.639,0,.369-.201,.772-.336,1.108-.168,.471-.303,1.512-.471,4.099-.336,5.175-.504,8.602-.504,13.004,0,3.394,.403,4.166,3.092,4.166,2.99,0,7.66-1.814,11.76-6.183,.134,1.277,.437,2.386,.772,3.192,.168,.369,.269,.604,.269,.807,0,.302-.134,.571-.672,1.041-3.629,3.326-8.366,5.04-12.734,5.04-4.301,0-6.316-1.714-6.316-6.854,0-5.645,.302-10.482,.471-14.515,.066-1.982,.168-4.133-.337-6.149,1.546,.168,3.159,.337,4.2,.605Z" style="fill:none; stroke:#fff; stroke-miterlimit:10; stroke-width:.6px;"/><path d="M457.651,60.948c.706,1.378,1.378,2.218,2.755,2.789,1.177,.471,3.293,.672,6.217,.672,4.334,0,9.441-.234,14.447-.739-.47,.706-.772,1.613-.907,2.621q-.168,1.075-1.243,1.143c-4.267,.235-8.266,.336-11.76,.336-3.461,0-6.249-.303-7.862-.975-1.546-.639-2.453-1.579-3.293-2.99-1.041,1.008-2.218,2.016-3.461,2.957-.336,.269-.537,.47-.672,.672-.168,.235-.302,.336-.504,.336-.134,0-.336-.168-.47-.437-.471-.874-.907-1.949-1.378-3.158,.873-.403,1.344-.639,1.982-1.042,.975-.604,1.948-1.378,2.822-2.15v-7.426h-1.646c-1.814,0-2.285,.067-2.453,.067-.369,0-.403-.033-.403-.403v-2.587c0-.336,.034-.37,.403-.37,.168,0,.639,.067,2.453,.067h2.15c1.781,0,2.318-.067,2.521-.067,.336,0,.369,.034,.369,.37,0,.201-.067,1.143-.067,3.191v7.123Zm-2.083-15.053c-.235,.169-.336,.235-.437,.235-.102,0-.168-.066-.27-.235-1.243-2.016-2.62-3.83-4.133-5.241-.269-.235-.201-.336,.169-.571l1.881-1.243c.37-.235,.438-.269,.706-.033,1.545,1.444,2.99,3.091,4.2,5.006,.201,.303,.201,.37-.168,.639l-1.949,1.444Zm11.895-6.451c1.545,0,2.62-.066,3.058-.066,.235,0,.336,.168,.336,.369,0,.773-.034,2.654,.403,4.939,.974,5.577,4.267,10.887,9.441,14.179-.571,.639-1.311,1.646-1.781,2.621-.269,.504-.403,.739-.604,.739-.168,0-.403-.135-.739-.437-4.1-3.293-6.854-7.729-8.165-12.769-1.276,5.107-3.763,9.105-7.66,12.499-.37,.303-.571,.471-.739,.471s-.336-.201-.706-.639c-.705-.94-1.411-1.545-2.083-1.982,5.376-3.763,8.4-9.004,9.173-16.665h-2.923c-2.084,0-2.688,.067-2.89,.067-.37,0-.403-.034-.403-.403v-2.621c0-.336,.033-.369,.403-.369,.201,0,.806,.066,2.89,.066h2.99Z" style="fill:none; stroke:#fff; stroke-miterlimit:10; stroke-width:.6px;"/><path d="M511.176,48.92c.067-.739,.067-1.378-.033-2.285,1.747,.438,3.091,.941,3.897,1.445,.302,.168,.47,.604,.235,.907-.202,.437-.438,.807-.538,1.311-.269,1.411-.604,2.89-.94,4.334,1.915,.975,3.998,2.285,5.241,3.226,.336,.202,.303,.37,.201,.706-.336,.806-1.041,2.217-1.444,2.89-.101,.168-.201,.234-.303,.234-.134,0-.269-.101-.403-.234-1.478-1.277-2.822-2.252-4.401-3.159-1.713,3.864-3.527,6.317-6.787,8.837-.302,.235-.471,.37-.672,.37-.135,0-.269-.067-.504-.235-.907-.739-1.747-1.075-2.923-1.378,4.199-2.923,6.249-5.712,7.526-9.105-1.849-.94-4.234-1.68-6.653-2.05-1.78,3.696-2.755,5.376-4.099,6.721-1.243,1.31-2.588,1.848-4.301,1.848-1.949,0-3.999-1.344-3.999-4.604,0-4.166,4.301-7.425,9.912-7.425,1.109-2.789,1.949-5.142,2.789-7.964-1.849,.202-3.528,.403-4.637,.538-.471,.067-.975,.168-1.513,.369-.168,.067-.402,.135-.604,.135-.269,0-.437-.135-.537-.37-.303-.672-.639-1.982-.975-3.662,1.008,.202,1.948,.235,2.957,.202,1.612,0,3.292-.169,5.208-.438,.84-.134,1.209-.302,1.646-.571,.134-.101,.302-.134,.437-.134,.168,0,.336,.033,.47,.134,.841,.504,1.646,1.177,2.285,1.849,.202,.201,.303,.369,.303,.571s-.135,.369-.336,.57c-.504,.471-.639,1.109-.907,1.748-.874,2.284-1.814,4.905-2.822,7.324,2.116,.269,4.099,.772,6.518,1.68,.337-1.545,.571-2.822,.706-4.334Zm-17.741,9.374c0,1.075,.37,1.546,1.177,1.546,.638,0,1.276-.437,1.948-1.276,.773-.975,1.579-2.318,2.453-4.1-3.428,.135-5.578,1.915-5.578,3.83Z" style="fill:none; stroke:#fff; stroke-miterlimit:10; stroke-width:.6px;"/></g></g><g><g><path d="M12.257,56.145c.065,.079,.117,.144,.165,.211,.511,.7,.607,1.622,.249,2.412-1.438,3.178-1.203,6.834,.629,9.78,3.025,4.862,9.441,6.357,14.304,3.332,4.862-3.024,6.356-9.44,3.331-14.303-2.607-4.19-7.851-5.971-12.47-4.233-1.075,.404-2.285-.007-2.892-.982l-6.309-10.141c-.701-1.127-2.188-1.473-3.315-.772-1.127,.701-1.474,2.188-.773,3.315l7.08,11.38Z" style="fill:#fff;"/><path d="M30.147,75.969c-7.116,4.427-16.509,2.239-20.936-4.877-2.441-3.924-2.949-8.705-1.437-13.036L1.088,47.308c-2.104-3.382-1.063-7.844,2.318-9.948,3.382-2.104,7.843-1.064,9.947,2.317l5.337,8.579c6.245-1.444,12.875,1.217,16.333,6.777,4.427,7.116,2.24,16.508-4.876,20.935ZM12.257,56.145c.065,.079,.117,.144,.165,.211,.511,.7,.607,1.622,.249,2.412-1.438,3.178-1.203,6.834,.629,9.78,3.025,4.862,9.441,6.357,14.304,3.332,4.862-3.024,6.356-9.44,3.331-14.303-2.607-4.19-7.851-5.971-12.47-4.233-1.075,.404-2.285-.007-2.892-.982l-6.309-10.141c-.701-1.127-2.188-1.473-3.315-.772-1.127,.701-1.474,2.188-.773,3.315l7.08,11.38Z" style="fill:#231815;"/><path d="M24.105,70.916l-3.934,2.447c-3.562,2.216-8.263,1.121-10.479-2.442-2.216-3.562-1.121-8.263,2.441-10.479l3.934-2.447c3.562-2.216,8.263-1.121,10.479,2.441,2.216,3.563,1.121,8.264-2.44,10.48Zm-9.428-6.385c-1.307,.813-1.709,2.539-.896,3.846,.814,1.308,2.54,1.71,3.847,.897l3.934-2.447c1.307-.813,1.709-2.539,.895-3.847-.813-1.307-2.539-1.709-3.846-.896l-3.934,2.447Z" style="fill:#231815;"/></g><g><polygon points="89.319 55.635 89.412 56.454 89.331 57.269 89.075 58.064 89.239 58.905 89.074 59.707 88.852 60.496 89.054 61.384 88.522 62.095 87.97 62.777 88.478 63.812 87.496 64.32 87.229 65.084 87.186 65.959 87.229 66.906 86.094 67.225 85.806 67.995 85.832 68.984 84.875 69.324 84.341 69.935 84.051 70.741 83.349 71.213 83.047 72.038 82.375 72.526 82.039 73.361 81.508 74.011 80.384 73.948 80.094 74.899 79.218 75.089 78.711 75.797 78.095 76.368 77.478 76.96 76.372 76.642 75.713 77.135 75.089 77.736 74.151 77.597 73.51 78.197 72.706 78.365 72.012 78.905 71.17 78.935 70.325 78.891 69.594 79.416 68.809 79.756 67.906 79.104 67.133 79.595 66.324 79.968 65.492 79.926 64.668 79.692 63.863 79.398 63.013 79.712 62.229 79.336 61.437 79.117 60.618 79.057 59.82 78.883 58.984 78.838 58.286 78.315 57.452 78.237 56.734 77.826 56.035 77.392 55.311 77.028 54.234 77.347 53.559 76.846 53.222 75.802 52.48 75.464 51.459 75.505 51.092 74.616 50.544 74.001 49.698 73.741 49.188 73.085 48.467 72.652 48.038 71.929 47.083 71.681 47.153 70.548 46.41 70.1 45.884 69.471 45.202 68.939 45.225 67.955 44.333 67.529 44.047 66.744 43.701 65.995 43.844 65.036 42.931 64.531 42.866 63.676 42.249 63.012 42.801 61.994 42.052 61.348 41.606 60.599 41.731 59.734 41.804 58.893 41.301 58.124 41.923 57.25 41.295 56.463 41.228 55.635 41.367 54.81 41.837 54.014 41.893 53.205 41.877 52.384 42.104 51.597 41.586 50.662 42.421 50.006 42.405 49.16 42.851 48.443 42.793 47.561 43.038 46.774 43.191 45.942 43.363 45.104 44.562 44.784 44.934 44.07 44.656 42.958 45.573 42.564 45.722 41.674 46.727 41.4 46.926 40.524 47.35 39.81 48.041 39.331 48.797 38.933 48.99 37.959 50.018 37.882 50.099 36.708 50.919 36.41 51.521 35.836 52.451 35.745 52.971 35.038 53.885 34.984 54.64 34.685 55.108 33.795 56.087 33.977 56.854 33.729 57.476 33.079 58.231 32.758 58.922 32.186 59.708 31.903 60.645 32.315 61.378 31.788 62.274 32.243 63.026 31.66 63.818 31.2 64.665 31.464 65.492 31.231 66.324 31.326 67.144 31.521 67.979 31.484 68.802 31.584 69.507 32.383 70.314 32.464 71.197 32.254 71.868 32.904 72.67 33.041 73.424 33.335 74.184 33.611 75.143 33.432 75.651 34.288 76.591 34.228 77.206 34.814 78.052 34.993 78.62 35.63 79.41 35.927 80.248 36.186 80.587 37.089 81.071 37.777 82.116 37.843 82.415 38.72 82.747 39.527 83.526 39.917 84.393 40.264 84.715 41.064 84.962 41.897 85.478 42.531 85.809 43.285 86.459 43.85 86.93 44.531 87.592 45.128 87.951 45.882 88.095 46.723 87.984 47.642 88.436 48.353 88.978 49.055 89.176 49.864 89.319 50.684 89.099 51.563 89.382 52.35 89.652 53.15 89.027 54.023 89.395 54.818 89.319 55.635" style="fill:#ed6c00;"/><g><circle cx="56.039" cy="46.699" r="2.852" style="fill:#fff;"/><circle cx="73.311" cy="46.699" r="2.852" style="fill:#fff;"/><path d="M65.134,60.944h-5.212c-1.133,0-1.909-1.142-1.493-2.195l4.447-11.253c.13-.33,.503-.491,.833-.361l1.259,.497c.33,.13,.492,.503,.361,.833l-3.195,8.086c-.333,.843,.288,1.756,1.194,1.756h1.805c.355,0,.642,.287,.642,.642v1.353c0,.355-.287,.642-.642,.642Z" style="fill:#fff;"/><path d="M62.043,70.816c-.68,0-1.377-.026-2.089-.078-.359-.026-.632-.351-.598-.71l.17-1.789c.033-.347,.343-.597,.691-.572,4.909,.356,8.89-.686,11.545-3.021,2.48-2.18,3.865-5.465,4.123-9.766,.021-.348,.308-.622,.656-.611l1.795,.061c.361,.012,.648,.325,.627,.686-.298,5.175-2.035,9.191-5.166,11.945-2.892,2.544-6.92,3.856-11.755,3.856Z" style="fill:#fff;"/></g></g></g></g></g></svg>