<?xml version="1.0" encoding="utf-8"?>
<!-- Generator: Adobe Illustrator 25.2.3, SVG Export Plug-In . SVG Version: 6.00 Build 0)  -->
<svg version="1.1" id="レイヤー_1" xmlns="http://www.w3.org/2000/svg" xmlns:xlink="http://www.w3.org/1999/xlink" x="0px"
	 y="0px" viewBox="0 0 402 21" style="enable-background:new 0 0 402 21;" xml:space="preserve">
<style type="text/css">
	.st0{fill:#3B241A;}
	.st1{fill:#F4891E;}
</style>
<path class="st0" d="M19.2,2L17,1.4c-0.6-0.2-1.3,0.1-1.6,0.7l-1,2.3c-0.2,0.5,0,1.1,0.5,1.3l2.3,1c0.2,0.1,0.3,0.4,0.2,0.7
	c-0.7,2.5-1.7,4.8-3.1,7c-0.1,0.2-0.4,0.4-0.6,0.3L12,13.8c-0.8-0.4-1.8,0-2.1,0.8c0,0,0,0,0,0l-0.8,1.9c-0.2,0.5,0,1.2,0.5,1.5
	l2,1.2c0.4,0.2,0.7,0.4,1.1,0.4l0,0c1.7,0.3,3.5-0.6,4.2-2.2c1.8-3.2,3.3-6.6,4.4-10.1c0.7-1.7,0.2-3.7-1.2-4.8l0,0
	C19.8,2.3,19.5,2.1,19.2,2z"/>
<path class="st1" d="M50,7.6c0,5.7-2.8,12.6-8.5,12.6c-3.8,0-5.3-2.9-5.3-6.6c0-5.7,2.9-12.3,8.5-12.3C48.6,1.4,50,4.4,50,7.6z
	 M40.2,13.8c0,1.4,0.2,3.2,1.8,3.2c2.8,0,4-6.9,4-9.3c0-1.2-0.2-3.1-1.7-3.1C41.6,4.6,40.2,11.1,40.2,13.8L40.2,13.8z"/>
<path class="st1" d="M51.7,15.8c1.2,0.6,2.6,1,4,1c2.3,0,3.6-1.1,3.6-2.6c0-1.6-1.3-2.4-3.7-2.4h-0.7l0.6-3.1h0.6c1.9,0,4-0.8,4-2.4
	c0-0.9-0.7-1.6-2.2-1.6c-1.3,0-2.6,0.3-3.8,0.9l-0.5-3c1.6-0.8,3.3-1.2,5.1-1.2c3,0,5.7,1.4,5.7,4.3c0,2.2-1.8,3.9-4.1,4.5l0,0
	c1.9,0.4,3.3,2.1,3.2,4c0,3.8-3.9,6-7.9,6c-2.3,0-4.3-0.6-5.2-1.2L51.7,15.8z"/>
<path class="st1" d="M73.9,11.1l-0.6,2.8h-7.3l0.6-2.8H73.9z"/>
<path class="st1" d="M88.6,5.1h-6.4L81.4,8c0.3,0,0.5,0,0.8,0c1.3-0.1,2.6,0.3,3.8,1c1.3,0.9,2.1,2.5,2,4.1c0,4.6-3.8,7.1-8.4,7.1
	c-1.6,0.1-3.3-0.3-4.7-1.1l1-3.2c1.2,0.6,2.4,0.9,3.7,0.9c2,0,4.2-1.1,4.2-3c0-1.6-1-2.8-4.5-2.8c-0.9,0-1.5,0.1-2.2,0.1l2.6-9.4
	h9.8L88.6,5.1z"/>
<path class="st1" d="M103.3,4.7c-0.5,0-1,0-1.5,0C99,4.8,96.5,6.5,95.4,9l0,0c1-0.9,2.4-1.4,3.7-1.4c2.7,0,4.6,2.1,4.6,5.1
	c0.1,4-3.1,7.3-7.2,7.4c0,0-0.1,0-0.1,0c-4.1,0-6-2.8-6-6.4c0-3.7,1.7-7.3,4.6-9.6c2.1-1.6,4.7-2.6,7.4-2.7c0.5,0,1,0,1.5,0
	L103.3,4.7z M99.6,13.2c0.2-1.2-0.7-2.3-1.9-2.5c-0.1,0-0.2,0-0.3,0c-1.1,0.1-2.1,0.7-2.6,1.7c-0.2,0.3-0.3,0.6-0.3,0.9
	c0,0.3-0.1,0.7-0.1,1c0,1.6,0.8,2.8,2.2,2.8C98.6,17.1,99.6,14.9,99.6,13.2z"/>
<path class="st1" d="M106.1,15.8c1.2,0.6,2.6,1,4,1c2.3,0,3.6-1.1,3.6-2.6c0-1.6-1.3-2.4-3.7-2.4h-0.7l0.6-3.1h0.6
	c1.9,0,4-0.8,4-2.4c0-0.9-0.7-1.6-2.2-1.6c-1.3,0-2.6,0.3-3.8,0.9l-0.6-3c1.6-0.8,3.3-1.2,5.1-1.2c3.1,0,5.7,1.4,5.7,4.3
	c0,2.2-1.8,3.9-4.1,4.5l0,0c1.9,0.4,3.3,2.1,3.2,4c0,3.8-3.9,6-7.9,6c-1.8,0.1-3.6-0.3-5.1-1.1L106.1,15.8z"/>
<path class="st1" d="M119.8,19.9l0.5-2.6l3.9-3c3.6-3,6-5.1,6-7.3c0-1.2-1-2.2-2.2-2.2c-0.1,0-0.2,0-0.3,0c-1.4,0-2.7,0.4-3.8,1.1
	L123,2.9c1.7-1,3.7-1.6,5.6-1.6c3.7,0,5.7,2.2,5.7,5c0,3.7-3,6.3-6.2,8.7l-1.8,1.3v0h6.5l-0.6,3.4L119.8,19.9z"/>
<path class="st1" d="M143.5,11.1l-0.5,2.8h-7.3l0.5-2.8H143.5z"/>
<path class="st1" d="M157.8,4.7c-0.5,0-1,0-1.5,0c-2.8,0.1-5.2,1.8-6.4,4.3h0.1c1-0.9,2.4-1.4,3.7-1.4c2.7,0,4.6,2.1,4.6,5.1
	c0.1,4-3.1,7.4-7.1,7.5c0,0-0.1,0-0.1,0c-4.1,0-6.1-2.8-6.1-6.4c0-3.7,1.6-7.3,4.5-9.7c2.1-1.6,4.7-2.6,7.4-2.7c0.5,0,1,0,1.5,0
	L157.8,4.7z M154.1,13.2c0.2-1.2-0.7-2.3-1.9-2.5c-0.1,0-0.2,0-0.3,0c-1.1,0.1-2.1,0.7-2.6,1.7c-0.2,0.3-0.3,0.6-0.3,0.9
	c0,0.3-0.1,0.7-0.1,1c0,1.6,0.8,2.8,2.2,2.8C153,17.1,154.1,14.9,154.1,13.2z"/>
<path class="st1" d="M174,7.6c0,5.7-2.8,12.6-8.5,12.6c-3.8,0-5.3-2.9-5.3-6.6c0-5.7,2.9-12.3,8.5-12.3C172.7,1.4,174,4.4,174,7.6z
	 M164.2,13.8c0,1.4,0.2,3.2,1.8,3.2c2.8,0,4-6.9,4-9.3c0-1.2-0.2-3.1-1.7-3.1C165.6,4.6,164.2,11.1,164.2,13.8L164.2,13.8z"/>
<path class="st1" d="M182.1,5.5L182.1,5.5L178.6,7l-0.1-3.2l5.1-2.2h3.3l-3.4,18.2h-3.9L182.1,5.5z"/>
<path class="st1" d="M197.3,5.5L197.3,5.5L193.6,7l-0.1-3.2l5.1-2.2h3.3l-3.4,18.2h-3.9L197.3,5.5z"/>
<path class="st1" d="M218.1,5.6c-1.5,1.6-2.3,3.8-2.2,6c-0.1,2.2,0.8,4.4,2.2,6l-0.4,0.3c-1.8-1.6-2.8-3.9-2.8-6.3
	c0-2.4,0.9-4.7,2.7-6.3L218.1,5.6z"/>
<path class="st1" d="M333.6,14.7c0.2,0.5,0.7,0.9,1.2,0.9c1.3,0,2-1,2.1-4c-0.4,0.8-1.2,1.4-2.1,1.4c-1.4,0-2.5-1.2-2.5-3
	s1.1-3.2,2.7-3.2c1.8,0,2.9,1.4,2.9,4.4c0,3.8-1.1,5.3-3.1,5.3c-0.9,0.1-1.8-0.4-2.2-1.3L333.6,14.7z M335,7.6c-1,0-1.6,0.9-1.6,2.4
	s0.7,2.1,1.6,2.1c0.8,0,1.6-0.6,1.9-1.4C336.8,8.7,336.2,7.6,335,7.6z"/>
<path class="st1" d="M341.3,11.1h-1.4V9.7h1.4V11.1z M341.3,16.3h-1.4v-1.4h1.4V16.3z"/>
<path class="st1" d="M348.9,11.6c0,3.4-1,4.9-2.9,4.9s-2.9-1.4-2.9-4.9s1-4.8,2.9-4.8S348.9,8.1,348.9,11.6z M344.3,11.6
	c0,2.9,0.6,4,1.7,4s1.8-1.1,1.8-4s-0.6-3.9-1.7-3.9S344.3,8.6,344.3,11.6L344.3,11.6z"/>
<path class="st1" d="M356.1,11.6c0,3.4-1,4.9-2.9,4.9s-2.8-1.4-2.8-4.9s1-4.8,2.9-4.8S356.1,8.1,356.1,11.6z M351.5,11.6
	c0,2.9,0.6,4,1.7,4s1.8-1.1,1.8-4s-0.6-3.9-1.7-3.9S351.5,8.6,351.5,11.6L351.5,11.6z"/>
<path class="st1" d="M365,12.1c-0.6,1.2-1.2,1.6-1.9,1.6c-0.7,0-1.3-0.2-1.9-0.6c-0.5-0.3-1-0.5-1.6-0.5c-0.6,0.1-1.1,0.4-1.4,1
	l-0.5-0.3c0.5-1.1,1.1-1.6,1.9-1.6c0.6,0,1.2,0.2,1.7,0.5c0.5,0.3,1.1,0.5,1.7,0.6c0.6,0,1.2-0.4,1.5-1L365,12.1z"/>
<path class="st1" d="M370.3,15.4h1.8v0.9h-4.7v-0.9h1.9V7.9c-0.6,0.4-1.2,0.7-1.9,0.9l-0.2-0.9c0.8-0.3,1.5-0.6,2.2-1.1h0.9V15.4z"
	/>
<path class="st1" d="M379.8,13.9c0,1.6-1.2,2.6-2.9,2.6s-2.9-1-2.9-2.5c0-1.1,0.6-1.8,2-2.5c-1.3-0.6-1.8-1.4-1.8-2.4
	c0.2-1.5,1.6-2.5,3.1-2.3c1.2,0.2,2.2,1.1,2.3,2.3c0,1-0.5,1.7-1.8,2.2C379.3,12,379.8,12.7,379.8,13.9z M376.7,11.8
	c-1.2,0.6-1.7,1.2-1.7,2c0,0.9,0.7,1.7,1.6,1.8c0.1,0,0.2,0,0.2,0c0.9,0.1,1.8-0.5,1.9-1.4c0-0.1,0-0.2,0-0.3c0-0.8-0.4-1.4-1.8-2
	L376.7,11.8z M377,10.9c1.2-0.5,1.5-1.1,1.5-1.9c0-0.8-0.7-1.5-1.5-1.5c0,0-0.1,0-0.1,0c-0.8-0.1-1.5,0.5-1.6,1.3c0,0.1,0,0.1,0,0.2
	c0,0.7,0.4,1.2,1.5,1.7L377,10.9z"/>
<path class="st1" d="M383,11.1h-1.4V9.7h1.4V11.1z M383,16.3h-1.4v-1.4h1.4V16.3z"/>
<path class="st1" d="M390.6,11.6c0,3.4-1,4.9-2.9,4.9s-2.9-1.4-2.9-4.9s1-4.8,2.9-4.8S390.6,8.1,390.6,11.6z M386,11.6
	c0,2.9,0.6,4,1.7,4s1.8-1.1,1.8-4s-0.6-3.9-1.7-3.9S386,8.6,386,11.6L386,11.6z"/>
<path class="st1" d="M397.8,11.6c0,3.4-1,4.9-2.9,4.9s-2.8-1.4-2.8-4.9s1-4.8,2.9-4.8S397.8,8.1,397.8,11.6z M393.2,11.6
	c0,2.9,0.6,4,1.7,4s1.8-1.1,1.8-4s-0.6-3.9-1.7-3.9S393.2,8.6,393.2,11.6L393.2,11.6z"/>
<path class="st1" d="M399.3,5.3c1.8,1.6,2.7,3.9,2.7,6.3c0,2.4-0.9,4.7-2.7,6.3l-0.4-0.3c1.5-1.6,2.3-3.8,2.2-6
	c0.1-2.2-0.7-4.4-2.2-6L399.3,5.3z"/>
<path class="st0" d="M0.4,11.9C-1.1,6.9,1.6,1.6,6.6,0l0.6,1.9c-3.9,1.3-6.1,5.5-4.8,9.4L0.4,11.9z"/>
<path class="st0" d="M3.7,10.8c-1-3.1,0.7-6.5,3.8-7.6c0,0,0.1,0,0.1,0l0.6,1.9c-2.1,0.7-3.3,2.9-2.6,5c0,0,0,0,0,0.1L3.7,10.8z"/>
<path class="st0" d="M6.8,9.8c-0.5-1.5,0.3-3,1.8-3.5c0,0,0,0,0,0l0.6,1.9C9,8.3,8.8,8.4,8.7,8.6C8.6,8.8,8.6,9,8.7,9.2L6.8,9.8z"/>
<path class="st0" d="M3.7,10.8c-1-3.1,0.7-6.5,3.8-7.6c0,0,0.1,0,0.1,0l0.6,1.9c-2.1,0.7-3.3,2.9-2.6,5c0,0,0,0,0,0.1L3.7,10.8z"/>
<g>
	<path class="st1" d="M228.1,8.3c0,0.1-0.1,0.1-0.2,0.1c-0.4,1-1,2.1-1.7,3c0.6,0.4,1.7,1.2,2,1.5l-0.5,0.7c-0.3-0.3-1.1-1-1.6-1.4
		v5.1h-0.8v-4.7c-0.5,0.6-1.1,1.1-1.7,1.5c-0.1-0.2-0.3-0.6-0.4-0.8c1.4-1,3-2.7,3.8-4.5h-3.6V8h1.9V5.6l1.1,0.1
		c0,0.1-0.1,0.1-0.2,0.2V8h1.3l0.1,0L228.1,8.3z M230.7,12c0,0.1-0.1,0.1-0.3,0.2c-0.2,2.1-0.6,4-2.6,5.1c-0.1-0.2-0.3-0.5-0.5-0.6
		c1.9-0.9,2.2-2.7,2.4-4.7L230.7,12z M232.7,16c0,0.4,0,0.4,0.3,0.4h0.9c0.3,0,0.4-0.3,0.4-1.9c0.2,0.1,0.5,0.3,0.7,0.3
		c-0.1,1.8-0.3,2.2-1,2.2h-1.2c-0.8,0-1-0.2-1-1.1v-4.7h-3.4V6.4h5.9v4.9h-1.5c0,0.1-0.1,0.1-0.2,0.2V16z M229.3,7.2v3.3h4.3V7.2
		H229.3z"/>
	<path class="st1" d="M237,6.4h8.1v10.5h-0.9v-0.8h-6.4V17H237V6.4z M244.3,7.3h-6.4v3.6h6.4V7.3z M237.9,15.3h6.4v-3.7h-6.4V15.3z"
		/>
	<path class="st1" d="M258,10.9C258,11,257.9,11,258,10.9c-0.2,0-0.2,0-0.3,0c-1,0.3-2.3,0.8-3.4,1.3c0,0.3,0,0.6,0,1
		c0,0.4,0,0.8,0,1.3l-0.9,0c0-0.4,0.1-1,0.1-1.5c0-0.2,0-0.4,0-0.5c-1.4,0.7-2.6,1.5-2.6,2.3c0,0.7,0.9,1.1,2.6,1.1
		c1.2,0,2.3,0,3.1-0.1l0,0.8c-0.7,0.1-1.9,0.1-3.1,0.1c-2.4,0-3.5-0.6-3.5-1.8c0-1.1,1.4-2.2,3.3-3.1c-0.1-0.8-0.4-1.2-0.9-1.2
		c-0.9,0-1.9,0.5-3,1.8c-0.3,0.4-0.8,0.9-1.4,1.4l-0.6-0.6c1.2-1.1,2.4-2.1,3.1-4.6l-0.7,0h-2.1V7.7c0.8,0,1.6,0,2.2,0l0.8,0
		c0.1-0.6,0.2-1.1,0.3-1.8l1.2,0.1c0,0.1-0.1,0.2-0.3,0.2c-0.1,0.5-0.2,0.9-0.3,1.4c0.9,0,2.7-0.2,4.3-0.7l0.1,0.8
		c-1.6,0.5-3.4,0.7-4.7,0.7c-0.3,0.9-0.6,1.7-0.9,2.1h0c0.5-0.5,1.4-0.8,2-0.8c0.8,0,1.4,0.6,1.5,1.6c1-0.5,2.4-1,3.4-1.4L258,10.9z
		"/>
	<path class="st1" d="M262.8,6.1l0.5,0.3c0,0-0.1,0.1-0.1,0.1c-0.3,0.9-0.8,2.2-1.2,3.2c1,1,1.3,1.9,1.3,2.7c0,1.8-1.1,1.8-2.1,1.7
		c0-0.2-0.1-0.5-0.2-0.7c0.2,0,0.4,0,0.5,0c0.5,0,1,0,1-1.1c0-0.7-0.3-1.5-1.3-2.5c0.4-0.9,0.8-2.1,1.1-3h-1.8v10.3h-0.8V6.1h2.9
		L262.8,6.1z M267.5,5.6c0,0.1-0.1,0.1-0.2,0.1c0.8,1.3,2.3,2.7,3.6,3.4c-0.2,0.2-0.4,0.5-0.5,0.7c-1.3-0.8-2.8-2.3-3.6-3.6
		c-0.7,1.2-2.1,2.7-3.6,3.6c-0.1-0.2-0.3-0.5-0.5-0.6c1.5-0.9,2.9-2.4,3.6-3.8L267.5,5.6z M265.5,13.4c0,0.1-0.2,0.1-0.3,0.1
		c-0.4,1-1.1,2.2-1.8,2.9c-0.1-0.1-0.4-0.4-0.5-0.5c0.7-0.6,1.3-1.7,1.7-2.8L265.5,13.4z M270.4,12.4h-3.1v3.8c0,0.9-0.4,1-2,1
		c0-0.2-0.2-0.6-0.3-0.8c0.6,0,1.2,0,1.3,0c0.2,0,0.2-0.1,0.2-0.2v-3.8h-2.9v-0.7h2.9V10h-2V9.3h4.8V10h-2v1.7h3.1V12.4z M270,16.3
		c-0.3-0.7-1.1-2-1.8-2.9l0.6-0.3c0.7,0.9,1.5,2.1,1.8,2.8L270,16.3z"/>
	<path class="st1" d="M278.6,17.1c-1.3-1.5-3.2-3.3-4.9-4.6c-0.6-0.5-0.8-0.8-0.8-1.3c0-0.4,0.2-0.7,0.7-1.1c1.1-1,3.3-3.1,4.5-4.3
		l1.1,0.7c0,0-0.1,0.1-0.3,0.1c0,0-0.1,0-0.2,0c-1.2,1.2-3.2,2.9-4.2,3.9c-0.3,0.3-0.5,0.5-0.5,0.7c0,0.2,0.2,0.5,0.7,0.8
		c1.6,1.3,3.4,2.9,4.9,4.5L278.6,17.1z"/>
	<path class="st1" d="M292.5,11.8v0.8h-5.3v4.5h-0.9v-4.5h-5.2v-0.8h5.2V7.3h-4.5V6.5h10v0.8h-4.6v4.5H292.5z M283.9,11.1
		c-0.2-0.8-0.7-2-1.2-3l0.8-0.2c0.6,0.9,1.1,2.1,1.2,2.9L283.9,11.1z M291.1,8.2c0,0.1-0.1,0.1-0.3,0.1c-0.4,0.8-1,2.1-1.5,2.9
		l-0.7-0.3c0.5-0.8,1.1-2.1,1.4-3.1L291.1,8.2z"/>
	<path class="st1" d="M294.8,6.4h8.1v10.5H302v-0.8h-6.4V17h-0.9V6.4z M302,7.3h-6.4v3.6h6.4V7.3z M295.7,15.3h6.4v-3.7h-6.4V15.3z"
		/>
	<path class="st1" d="M311.2,15.8h5.3v0.8h-11.3v-0.8h5.2v-5.3h-4.4V9.7h4.4V5.6l1.1,0.1c0,0.1-0.1,0.1-0.3,0.2v3.8h4.4v0.8h-4.4
		V15.8z"/>
	<path class="st1" d="M318.8,6.4h8.1v10.5H326v-0.8h-6.4V17h-0.9V6.4z M326,7.3h-6.4v3.6h6.4V7.3z M319.6,15.3h6.4v-3.7h-6.4V15.3z"
		/>
</g>
</svg>
