<svg xmlns="http://www.w3.org/2000/svg" viewBox="0 0 127.4 49.34"><title>アセット 9</title><g id="レイヤー_2" data-name="レイヤー 2"><g id="contents"><polygon points="127.39 49.34 0 49.34 0 0 127.39 0 121.69 24.28 127.39 49.34" style="fill:#e60039"/><path d="M17.45,29.19c-.31,0-.39-.05-.39-.33,0-.09,0-1.62,0-2.33V22c0-.71,0-2.18,0-2.28,0-.28.09-.37.37-.37l1.88,0h1.74c2,0,3.29,1,3.29,3S23.07,26,20.45,26h-.73c-.33,0-.4.07-.4.4,0,.81,0,2.33,0,2.42,0,.28-.08.33-.38.33Zm1.87-5.44c0,.33.07.4.4.4h.72a1.43,1.43,0,0,0,1.62-1.53c0-.8-.41-1.25-1.39-1.25h-1c-.33,0-.4.07-.4.4Z" style="fill:#fff"/><path d="M35.11,25.39a3.63,3.63,0,0,1-3.91,3.88,3.44,3.44,0,0,1-3.63-3.56,3.65,3.65,0,0,1,3.92-3.91A3.45,3.45,0,0,1,35.11,25.39Zm-5.29.34a1.51,1.51,0,0,0,1.45,1.68,1.62,1.62,0,0,0,1.59-1.84,1.53,1.53,0,0,0-1.47-1.7C30.36,23.87,29.82,24.66,29.82,25.73Z" style="fill:#fff"/><path d="M41.6,19.91a1.32,1.32,0,0,1-1.37,1.43A1.18,1.18,0,0,1,39,20.13a1.31,1.31,0,0,1,1.37-1.39A1.17,1.17,0,0,1,41.6,19.91Zm-2,9.28c-.3,0-.38-.05-.38-.33,0-.09,0-1.38,0-1.93V24.14c0-.55,0-1.84,0-1.93,0-.28.08-.33.38-.33H41c.3,0,.38.05.38.33,0,.09,0,1.38,0,1.93v2.79c0,.55,0,1.84,0,1.93,0,.28-.08.33-.38.33Z" style="fill:#fff"/><path d="M48,26.93c0,.55,0,1.84,0,1.93,0,.28-.08.33-.38.33H46.17c-.3,0-.38-.05-.38-.33,0-.09,0-1.38,0-1.93V24.14c0-.55,0-1.84,0-1.93,0-.28.08-.33.38-.33h1.31c.29,0,.36.05.37.34s0,.25.11.25a.32.32,0,0,0,.18-.09A3.3,3.3,0,0,1,50,21.8a2.35,2.35,0,0,1,2.49,2.59v2.54c0,.55,0,1.84,0,1.93,0,.28-.08.33-.39.33H50.66c-.31,0-.39-.05-.39-.33,0-.09,0-1.38,0-1.93v-2a1,1,0,0,0-1.08-1.06,1.61,1.61,0,0,0-.9.26.53.53,0,0,0-.32.57Z" style="fill:#fff"/><path d="M61.06,28.7c0,.32-.07.4-.39.47a5.82,5.82,0,0,1-1,.1c-1.82,0-2.39-.93-2.39-2.34V24.2c0-.33-.12-.39-.48-.39h-.23c-.32,0-.36-.07-.36-.39V22.28c0-.3,0-.39.3-.39H57c.18,0,.29-.08.29-.32v-.21c0-.37,0-.82,0-1s.1-.33.4-.33H59c.29,0,.38.05.38.29s0,.85,0,1.17.06.4.39.4h.92c.34,0,.4.05.4.4v1.13c0,.31,0,.4-.29.4h-1c-.33,0-.4.06-.4.39v2.39c0,.54.23.74.83.74a4.23,4.23,0,0,0,.5,0,.79.79,0,0,1,.22,0c.13,0,.16.09.16.33Z" style="fill:#fff"/><path d="M86.21,30.15c1.28,0,4,0,4.13,0,.51,0,.61.15.61.72V33c0,.57-.1.72-.61.72-.18,0-2.85-.05-4.13-.05H82.68c-1.31,0-4.2.05-4.38.05-.51,0-.61-.15-.61-.72V31.93a1,1,0,0,1,.61-1.16,16.87,16.87,0,0,0,1.36-1c4.72-4,6.85-6.15,6.85-8.17,0-1.36-.89-2.3-2.67-2.3A4.81,4.81,0,0,0,80.33,21c-.22.24-.35.37-.49.37s-.28-.13-.5-.35l-1.83-2a.88.88,0,0,1-.29-.54c0-.15.1-.3.32-.52a9.38,9.38,0,0,1,6.62-2.69c4.25,0,6.67,2.42,6.67,5.58s-2.55,6-5.76,8.79c-.19.18-.27.28-.27.35s.15.12.45.12Z" style="fill:#fff"/></g></g></svg>