<svg xmlns="http://www.w3.org/2000/svg" viewBox="0 0 127.4 49.34"><title>アセット 10</title><g id="レイヤー_2" data-name="レイヤー 2"><g id="contents"><polygon points="127.39 49.34 0 49.34 0 0 127.39 0 121.69 24.28 127.39 49.34" style="fill:#e60039"/><path d="M17.45,29.56c-.31,0-.39,0-.39-.33,0-.1,0-1.63,0-2.33V22.37c0-.7,0-2.18,0-2.27,0-.28.09-.37.37-.37l1.88,0h1.74c2,0,3.29,1,3.29,3,0,2.16-1.27,3.64-3.89,3.64h-.73c-.33,0-.4.06-.4.39,0,.82,0,2.33,0,2.43,0,.28-.08.33-.38.33Zm1.87-5.44c0,.33.07.4.4.4h.72A1.43,1.43,0,0,0,22.06,23c0-.8-.41-1.25-1.39-1.25h-1c-.33,0-.4.06-.4.39Z" style="fill:#fff"/><path d="M35.11,25.75a3.63,3.63,0,0,1-3.91,3.89,3.44,3.44,0,0,1-3.63-3.57,3.66,3.66,0,0,1,3.92-3.91A3.45,3.45,0,0,1,35.11,25.75Zm-5.29.35a1.51,1.51,0,0,0,1.45,1.68,1.62,1.62,0,0,0,1.59-1.84,1.53,1.53,0,0,0-1.47-1.7C30.36,24.24,29.82,25,29.82,26.1Z" style="fill:#fff"/><path d="M41.6,20.27a1.33,1.33,0,0,1-1.37,1.44A1.19,1.19,0,0,1,39,20.5a1.31,1.31,0,0,1,1.37-1.4A1.17,1.17,0,0,1,41.6,20.27Zm-2,9.29c-.3,0-.38,0-.38-.33,0-.1,0-1.39,0-1.93V24.5c0-.54,0-1.83,0-1.93,0-.28.08-.33.38-.33H41c.3,0,.38.05.38.33,0,.1,0,1.39,0,1.93v2.8c0,.54,0,1.83,0,1.93,0,.28-.08.33-.38.33Z" style="fill:#fff"/><path d="M48,27.3c0,.54,0,1.83,0,1.93,0,.28-.08.33-.38.33H46.17c-.3,0-.38,0-.38-.33,0-.1,0-1.39,0-1.93V24.5c0-.54,0-1.83,0-1.93,0-.28.08-.33.38-.33h1.31c.29,0,.36.05.37.35s0,.25.11.25a.41.41,0,0,0,.18-.09A3.23,3.23,0,0,1,50,22.16a2.35,2.35,0,0,1,2.49,2.6V27.3c0,.54,0,1.83,0,1.93,0,.28-.08.33-.39.33H50.66c-.31,0-.39,0-.39-.33,0-.1,0-1.39,0-1.93v-2a1,1,0,0,0-1.08-1.05,1.68,1.68,0,0,0-.9.25.54.54,0,0,0-.32.57Z" style="fill:#fff"/><path d="M61.06,29.07c0,.32-.07.4-.39.46a5,5,0,0,1-1,.11c-1.82,0-2.39-.93-2.39-2.34V24.57c0-.33-.12-.4-.48-.4h-.23c-.32,0-.36-.07-.36-.39V22.64c0-.29,0-.39.3-.39l.48,0c.18,0,.29-.08.29-.32v-.21c0-.38,0-.83,0-1s.1-.34.4-.34H59c.29,0,.38.06.38.3s0,.85,0,1.17.06.4.39.4h.44l.48,0c.34,0,.4.06.4.4v1.13c0,.31,0,.4-.29.4h-1c-.33,0-.4.07-.4.4V27c0,.55.23.75.83.75a2.84,2.84,0,0,0,.5-.06l.22,0c.13,0,.16.1.16.34Z" style="fill:#fff"/><path d="M88.43,23.24c0,.1.08.15.37.25a3.89,3.89,0,0,1,2.75,3.93c0,2.74-2.13,5.85-8.16,5.85A12.68,12.68,0,0,1,78,32.19c-.37-.18-.52-.33-.52-.57a1.32,1.32,0,0,1,.1-.45l.79-2.25c.13-.34.23-.51.4-.51a.93.93,0,0,1,.47.22,8.23,8.23,0,0,0,4.25,1.09c2.32,0,3.8-1,3.8-2.4,0-1.56-1.36-2.05-4.27-2.05-.69,0-1.66.05-2,.05-.52,0-.59-.15-.59-.74v-2c0-.6.07-.75.59-.75.32,0,1.11.05,1.71.05,2.64,0,3.78-.56,3.78-1.85,0-1-1.07-1.63-2.8-1.63a7,7,0,0,0-3.6,1,1,1,0,0,1-.5.23c-.17,0-.29-.15-.44-.5l-1-2.12a1.28,1.28,0,0,1-.15-.5c0-.22.15-.34.49-.52a12.26,12.26,0,0,1,5.68-1.33c4.7,0,6.55,2.25,6.55,4.52a4.39,4.39,0,0,1-2,3.78C88.56,23.09,88.43,23.17,88.43,23.24Z" style="fill:#fff"/></g></g></svg>