<svg xmlns="http://www.w3.org/2000/svg" viewBox="0 0 127.4 49.34"><title>アセット 8</title><g id="レイヤー_2" data-name="レイヤー 2"><g id="contents"><polygon points="127.39 49.34 0 49.34 0 0 127.39 0 121.69 24.28 127.39 49.34" style="fill:#e60039"/><path d="M17.45,30c-.31,0-.39-.05-.39-.33,0-.09,0-1.62,0-2.33V22.85c0-.71,0-2.18,0-2.28,0-.28.09-.37.37-.37l1.88,0h1.74c2,0,3.29,1,3.29,3s-1.27,3.63-3.89,3.63h-.73c-.33,0-.4.07-.4.4,0,.81,0,2.33,0,2.42,0,.28-.08.33-.38.33Zm1.87-5.44c0,.33.07.4.4.4h.72a1.43,1.43,0,0,0,1.62-1.53c0-.8-.41-1.25-1.39-1.25h-1c-.33,0-.4.07-.4.4Z" style="fill:#fff"/><path d="M35.11,26.23a3.63,3.63,0,0,1-3.91,3.88,3.44,3.44,0,0,1-3.63-3.56,3.65,3.65,0,0,1,3.92-3.91A3.45,3.45,0,0,1,35.11,26.23Zm-5.29.34a1.51,1.51,0,0,0,1.45,1.68,1.62,1.62,0,0,0,1.59-1.83,1.53,1.53,0,0,0-1.47-1.71C30.36,24.71,29.82,25.5,29.82,26.57Z" style="fill:#fff"/><path d="M41.6,20.75a1.32,1.32,0,0,1-1.37,1.43A1.18,1.18,0,0,1,39,21a1.31,1.31,0,0,1,1.37-1.39A1.17,1.17,0,0,1,41.6,20.75Zm-2,9.28c-.3,0-.38-.05-.38-.33,0-.09,0-1.38,0-1.93V25c0-.55,0-1.84,0-1.93,0-.28.08-.33.38-.33H41c.3,0,.38.05.38.33,0,.09,0,1.38,0,1.93v2.79c0,.55,0,1.84,0,1.93,0,.28-.08.33-.38.33Z" style="fill:#fff"/><path d="M48,27.77c0,.55,0,1.84,0,1.93,0,.28-.08.33-.38.33H46.17c-.3,0-.38-.05-.38-.33,0-.09,0-1.38,0-1.93V25c0-.55,0-1.84,0-1.93,0-.28.08-.33.38-.33h1.31c.29,0,.36.05.37.34s0,.26.11.26.09,0,.18-.1A3.3,3.3,0,0,1,50,22.64a2.35,2.35,0,0,1,2.49,2.59v2.54c0,.55,0,1.84,0,1.93,0,.28-.08.33-.39.33H50.66c-.31,0-.39-.05-.39-.33,0-.09,0-1.38,0-1.93v-2a1,1,0,0,0-1.08-1.05,1.6,1.6,0,0,0-.9.25.53.53,0,0,0-.32.57Z" style="fill:#fff"/><path d="M61.06,29.54c0,.32-.07.4-.39.47a5.82,5.82,0,0,1-1,.1c-1.82,0-2.39-.93-2.39-2.34V25c0-.33-.12-.39-.48-.39h-.23c-.32,0-.36-.07-.36-.39V23.12c0-.3,0-.39.3-.39H57c.18,0,.29-.08.29-.32v-.21c0-.37,0-.82,0-1s.1-.33.4-.33H59c.29,0,.38.05.38.29s0,.85,0,1.17.06.4.39.4h.92c.34,0,.4.05.4.4v1.13c0,.31,0,.4-.29.4h-1c-.33,0-.4.06-.4.39v2.39c0,.54.23.74.83.74a4.23,4.23,0,0,0,.5-.05.79.79,0,0,1,.22,0c.13,0,.16.09.16.33Z" style="fill:#fff"/><path d="M87.11,26.71c0,1.31.07,4.15.07,4.32,0,.52-.14.62-.71.62H83.6c-.57,0-.71-.1-.71-.62,0-.17.07-3,.07-4.32V18.8c0-.44-.07-.61-.3-.61a1,1,0,0,0-.39.1c-.84.29-1.58.59-2.25.88a1.13,1.13,0,0,1-.47.15c-.22,0-.32-.17-.44-.54l-.87-2.45a1.37,1.37,0,0,1-.1-.47c0-.22.15-.32.57-.44a46,46,0,0,0,4.67-1.68,3.33,3.33,0,0,1,1.46-.3h1.63c.57,0,.71.1.71.62,0,.17-.07,3-.07,4.32Z" style="fill:#fff"/></g></g></svg>